<?xml version="1.0" standalone="no"?>
<!DOCTYPE svg PUBLIC "-//W3C//DTD SVG 1.1//EN" "http://www.w3.org/Graphics/SVG/1.1/DTD/svg11.dtd">
<svg xmlns="http://www.w3.org/2000/svg">
<metadata>Copyright (C) 2017 by original authors @ fontello.com</metadata>
<defs>
<font id="outline-pro" horiz-adv-x="1000" >
<font-face font-family="outline-pro" font-weight="400" font-stretch="normal" units-per-em="1000" ascent="850" descent="-150" />
<missing-glyph horiz-adv-x="1000" />
<glyph glyph-name="icon-address-book" unicode="&#xe800;" d="M0-150v1000h1000v-178h-109v-95h109v-178h-109v-98h109v-177h-109v-96h109v-178h-1000z m193 285h504v155l-187 111q37 19 58 54t22 77q0 58-42 101t-103 43-102-43-42-101q0-43 22-77t58-54l-188-111v-155z" horiz-adv-x="1000" />

<glyph glyph-name="icon-amazon" unicode="&#xe801;" d="M777 155a118 118 0 0 0-24 31c-2 6-6 15-13 29a184 184 0 0 0-7 47v288a112 112 0 0 1-6 23 204 204 0 0 1-10 25 72 72 0 0 1-13 20c-7 6-14 13-20 19a251 251 0 0 1-174 58h-23a312 312 0 0 1-152-47 190 190 0 0 1-83-129v-7c0-10 7-13 17-16l112-17a30 30 0 0 1 20 24 71 71 0 0 0 29 50 159 159 0 0 0 56 20h7a75 75 0 0 0 63-30c11-14 14-40 14-83v-13c-40-3-70-3-86-7a482 482 0 0 1-129-33 209 209 0 0 1-89-74 184 184 0 0 1-33-113 155 155 0 0 1 53-129 175 175 0 0 1 122-48 282 282 0 0 1 83 11 246 246 0 0 1 107 71c2-2 6-9 13-19s10-17 13-20l14-16a190 190 0 0 1 22-23c14-4 24-4 30 3l87 77a25 25 0 0 1 7 13 75 75 0 0 1-7 15z m-202 129a208 208 0 0 0-7-35 175 175 0 0 0-18-41 94 94 0 0 0-63-53h-17a59 59 0 0 0-50 24 78 78 0 0 0-20 59c0 53 27 89 86 110a623 623 0 0 0 89 6z m-553-237c2 6 9 6 15 0a937 937 0 0 1 475-129 965 965 0 0 1 338 63l12 6c6 2 9 2 12 6 9 2 14 2 21-6s2-15-6-18c-12-9-24-14-41-27a638 638 0 0 0-167-69 779 779 0 0 0-181-23 677 677 0 0 0-258 48 730 730 0 0 0-217 134c-2 2-6 6-6 9s0 2 3 6z m778-16a7 7 0 0 0 6 6 141 141 0 0 0 41 21 242 242 0 0 0 66 9h17a102 102 0 0 0 48-12c3-2 3-8 3-14v-6a190 190 0 0 0-18-72 148 148 0 0 0-48-65 33 33 0 0 0-6-10h-2a14 14 0 0 0-3 10 371 371 0 0 1 32 107c0 6 0 12-2 14a72 72 0 0 1-48 12 195 195 0 0 1-36-3l-41-6c-2 0-6 0-6 3s-2 2 0 2a4 4 0 0 0-3 4z" horiz-adv-x="1000" />

<glyph glyph-name="icon-anchor" unicode="&#xe802;" d="M115 210a17 17 0 0 0 4 13l97 116 21-27 73-90a17 17 0 0 0 4-14 15 15 0 0 0-6-11 18 18 0 0 0-22 0l-22 18a189 189 0 0 1 60-95 225 225 0 0 1 106-50 29 29 0 0 1 11 0 18 18 0 0 1 9 5 34 34 0 0 1 6 19v368a21 21 0 0 1-6 15 22 22 0 0 1-10 6l-6 0h-38a44 44 0 0 0-31 12 42 42 0 0 0-13 33 39 39 0 0 0 13 31 50 50 0 0 0 31 12h40l3 0a17 17 0 0 1 4 2 22 22 0 0 1 5 3l4 4a8 8 0 0 1 3 5 41 41 0 0 0 0 8v11a104 104 0 0 0-47 41 119 119 0 0 0-18 61 105 105 0 0 0 33 76 105 105 0 0 0 77 32 108 108 0 0 0 78-32 100 100 0 0 0 32-77 105 105 0 0 0-18-60 118 118 0 0 0-47-41v-9a25 25 0 0 1 0-8 15 15 0 0 1 3-6l4-3a22 22 0 0 1 5-3q4-2 4 0s0 0 2-2h42a44 44 0 0 0 31-12 41 41 0 0 0 14-32 45 45 0 0 0-44-45h-40l-5 0a30 30 0 0 1-11-6 16 16 0 0 1-6-15v-369a28 28 0 0 1 6-19 15 15 0 0 1 11-6h9a238 238 0 0 1 108 50 183 183 0 0 1 59 95l-21-18a15 15 0 0 0-13-4 22 22 0 0 0-12 7 18 18 0 0 0 0 22l74 90 20 27 97-116a25 25 0 0 0 4-15 15 15 0 0 0-7-13 20 20 0 0 0-13-5 17 17 0 0 0-12 5l-29 25a326 326 0 0 0-82-169 317 317 0 0 0-162-97 3 3 0 0 0-2 0 45 45 0 0 1-22-12 55 55 0 0 1-14-20 45 45 0 0 0-70-25 39 39 0 0 0-15 25 37 37 0 0 1-14 20 67 67 0 0 1-22 12 4 4 0 0 0-3 0 332 332 0 0 0-244 266l-27-24a17 17 0 0 0-15-4 21 21 0 0 0-14 7 19 19 0 0 0-4 12z m331 495a58 58 0 0 1 10-33v5a41 41 0 0 0 13 31 48 48 0 0 0 31 13 40 40 0 0 0 31-12 44 44 0 0 0 14-32v-5a57 57 0 0 1 10 33 52 52 0 0 1-16 38 50 50 0 0 1-39 15 57 57 0 0 1-38-15 53 53 0 0 1-16-38z" horiz-adv-x="1000" />

<glyph glyph-name="icon-angle-circled-down" unicode="&#xe803;" d="M454 125l253 253q11 11 11 26t-11 25l-57 57q-10 10-25 10t-25-10l-171-172-172 172q-10 10-25 10t-25-10l-57-57q-10-11-10-25t10-26l253-253q11-10 26-10t25 10z m403 225q0-117-57-215t-156-156-215-58-216 58-155 156-58 215 58 215 155 156 216 58 215-58 156-156 57-215z" horiz-adv-x="844" />

<glyph glyph-name="icon-angle-circled-left" unicode="&#xe804;" d="M507 72l57 56q11 11 11 26t-11 25l-171 171 171 171q11 11 11 25t-11 25l-57 57q-10 11-25 11t-25-11l-253-253q-11-11-11-25t11-25l253-254q11-10 25-10t25 10z m350 278q0-117-57-215t-156-156-215-58-216 58-155 156-58 215 58 215 155 156 216 58 215-58 156-156 57-215z" horiz-adv-x="844" />

<glyph glyph-name="icon-angle-circled-right" unicode="&#xe805;" d="M400 72l253 253q11 11 11 25t-11 25l-253 253q-10 11-25 11t-25-11l-57-56q-11-11-11-26t11-25l171-171-171-171q-11-11-11-25t11-26l57-57q11-10 25-10t25 10z m457 278q0-117-57-215t-156-156-215-58-216 58-155 156-58 215 58 215 155 156 216 58 215-58 156-156 57-215z" horiz-adv-x="844" />

<glyph glyph-name="icon-angle-circled-up" unicode="&#xe806;" d="M650 214l57 57q11 11 11 25t-11 26l-253 253q-11 10-25 10t-26-10l-253-254q-10-10-10-25t10-25l57-57q11-10 25-10t25 10l172 172 171-172q11-10 25-10t25 10z m207 136q0-117-57-215t-156-156-215-58-216 58-155 156-58 215 58 215 155 156 216 58 215-58 156-156 57-215z" horiz-adv-x="844" />

<glyph glyph-name="icon-angle-double-down" unicode="&#xe807;" d="M600 368q0-7-6-13l-260-260q-5-6-13-6t-12 6l-260 260q-6 6-6 13t6 13l27 28q6 5 13 5t13-5l219-220 220 220q5 5 13 5t12-5l28-28q6-6 6-13z m0 214q0-7-6-13l-260-260q-5-5-13-5t-12 5l-260 260q-6 6-6 13t6 13l27 28q6 5 13 5t13-5l219-220 220 220q5 5 13 5t12-5l28-28q6-6 6-13z" horiz-adv-x="656" />

<glyph glyph-name="icon-angle-double-left" unicode="&#xe808;" d="M350 82q0-7-6-13l-28-28q-5-5-12-5t-13 5l-260 260q-6 6-6 13t6 13l260 260q5 6 13 6t12-6l28-28q6-5 6-13t-6-12l-219-220 219-219q6-6 6-13z m214 0q0-7-5-13l-28-28q-6-5-13-5t-13 5l-260 260q-6 6-6 13t6 13l260 260q6 6 13 6t13-6l28-28q5-5 5-13t-5-12l-220-220 220-219q5-6 5-13z" horiz-adv-x="563" />

<glyph glyph-name="icon-angle-double-right" unicode="&#xe809;" d="M332 314q0-7-6-13l-260-260q-5-5-12-5t-13 5l-28 28q-6 6-6 13t6 13l219 219-219 220q-6 5-6 12t6 13l28 28q5 6 13 6t12-6l260-260q6-5 6-13z m214 0q0-7-5-13l-260-260q-6-5-13-5t-13 5l-28 28q-5 6-5 13t5 13l219 219-219 220q-5 5-5 12t5 13l28 28q6 6 13 6t13-6l260-260q5-5 5-13z" horiz-adv-x="563" />

<glyph glyph-name="icon-angle-double-up" unicode="&#xe80a;" d="M600 118q0-7-6-13l-28-28q-5-5-12-5t-13 5l-220 219-219-219q-5-5-13-5t-13 5l-27 28q-6 6-6 13t6 13l260 260q5 5 12 5t13-5l260-260q6-6 6-13z m0 214q0-7-6-13l-28-28q-5-5-12-5t-13 5l-220 220-219-220q-5-5-13-5t-13 5l-27 28q-6 6-6 13t6 13l260 260q5 6 12 6t13-6l260-260q6-6 6-13z" horiz-adv-x="656" />

<glyph glyph-name="icon-at" unicode="&#xe80b;" d="M919 108h-177a114 114 0 0 0-95 50 233 233 0 0 0-148-50 232 232 0 0 0-170 71 237 237 0 0 0-71 171 225 225 0 0 0 71 171 241 241 0 0 0 171 71h243v-362h98l0 0a350 350 0 0 1 21 122 347 347 0 0 1-105 255 356 356 0 0 1-257 106 341 341 0 0 1-256-106 358 358 0 0 1-107-257 347 347 0 0 1 107-257 342 342 0 0 1 256-105 346 346 0 0 1 257 106l86-86a464 464 0 0 0-343-143 468 468 0 0 0-342 144 463 463 0 0 0-142 341 478 478 0 0 0 142 343 454 454 0 0 0 342 142 472 472 0 0 0 342-142 472 472 0 0 0 142-343 478 478 0 0 0-65-242z m-298 242v120h-121a116 116 0 0 1-84-35 117 117 0 0 1-37-85 113 113 0 0 1 36-84 123 123 0 0 1 85-37 108 108 0 0 1 85 35 125 125 0 0 1 36 86z" horiz-adv-x="1000" />

<glyph glyph-name="icon-attach" unicode="&#xe80c;" d="M783 77q0-65-44-109t-109-44q-75 0-131 55l-434 434q-63 64-63 151 0 88 62 150t150 62 152-63l338-338q5-5 5-12 0-9-17-26t-26-17q-7 0-13 5l-338 339q-44 43-101 43-59 0-100-42t-40-101q0-58 42-101l433-433q35-36 81-36 36 0 59 24t24 59q0 46-36 81l-324 324q-14 14-33 14-16 0-27-11t-11-27q0-18 14-33l229-228q6-6 6-13 0-9-18-26t-26-17q-7 0-12 5l-229 229q-35 34-35 83 0 46 32 78t77 32q49 0 83-36l325-324q55-54 55-131z" horiz-adv-x="781" />

<glyph glyph-name="icon-attention" unicode="&#xe80d;" d="M905 77c8-14 11-30 11-45 0-53-41-91-90-91h-735c-48 0-91 40-91 91 0 15 4 31 13 45l368 637c15 28 44 45 78 45 32 0 61-17 77-45z m-512 472v-299h133v299h-133z m67-369c-42 0-75-32-75-76 0-41 33-74 75-74s75 33 75 74c0 43-32 76-75 76z" horiz-adv-x="906" />

<glyph glyph-name="icon-basket" unicode="&#xe80e;" d="M357-7q0-29-21-50t-50-22-50 22-22 50 22 50 50 21 50-21 21-50z m500 0q0-29-21-50t-50-22-51 22-21 50 21 50 51 21 50-21 21-50z m72 607v-286q0-13-10-23t-22-12l-583-68q7-34 7-40 0-8-13-35h513q15 0 26-11t10-25-10-25-26-11h-571q-14 0-25 11t-11 25q0 6 5 18t9 20 12 22 8 16l-98 460h-114q-15 0-25 10t-11 25 11 26 25 10h143q9 0 16-3t10-9 8-14 4-14 3-17 3-14h670q14 0 25-11t11-25z" horiz-adv-x="938" />

<glyph glyph-name="icon-beaker" unicode="&#xe80f;" d="M852 42q31-50 12-85t-78-36h-643q-59 0-79 36t12 85l281 442v223h-36q-14 0-25 11t-10 25 10 25 25 11h286q15 0 25-11t11-25-11-25-25-11h-36v-223z m-435 405l-151-240h397l-152 240-11 17v243h-71v-243z" horiz-adv-x="938" />

<glyph glyph-name="icon-bookbub-new" unicode="&#xe810;" d="M540 25v633h213c52 2 107-10 152-40 35-25 58-65 55-108 0-32-10-65-32-90-23-27-53-45-85-55l0 0c40-2 77-22 105-50 27-27 40-65 40-102 2-53-20-103-60-138-48-35-105-52-163-50l-225 0z m123 538v-165h65c27-3 55 7 77 22 18 18 28 40 28 65 0 50-38 75-110 75l-60 3z m0-260v-185h85c30-3 60 7 85 25 20 17 30 42 30 70 0 60-40 90-118 90l-82 0z m-633-278v633h213c52 2 107-10 152-40 35-25 58-65 55-108 0-32-10-65-32-90-23-27-53-45-85-55l0 0c40-2 77-22 105-50 27-27 40-65 40-102 2-53-20-103-60-138-48-35-105-52-163-50l-225 0z m123 538v-165h65c27-3 55 7 77 22 18 18 28 40 28 65 0 50-38 75-110 75l-60 3z m0-260v-185h85c30-3 60 7 85 25 20 17 30 42 30 70 0 60-40 90-118 90l-82 0z" horiz-adv-x="1000" />

<glyph glyph-name="icon-bitbucket" unicode="&#xe811;" d="M88 689q0 57 121 97a933 933 0 0 0 291 39 937 937 0 0 0 292-40q121-40 120-97 0-11-69-418-8-44-105-85a613 613 0 0 0-238-40 613 613 0 0 0-238 41q-97 40-104 84-70 394-70 419z m102-553v4q0 16 14 16a18 18 0 0 0 12-5 330 330 0 0 1 116-55 538 538 0 0 1 119-22l49-3 21 0 50 5a669 669 0 0 1 71 12 435 435 0 0 1 75 25 318 318 0 0 1 69 37l10 5q15 0 15-16a9 9 0 0 0 0-4q-21-115-28-154-11-46-91-78a512 512 0 0 0-192-28 570 570 0 0 0-190 30q-81 30-91 78-18 90-29 153z m47 567q0-23 78-39a968 968 0 0 1 185-17 937 937 0 0 1 188 16q78 16 77 39t-77 41a844 844 0 0 1-188 16 1014 1014 0 0 1-186-16q-76-15-77-40z m132-336a125 125 0 0 1 39-92 131 131 0 0 1 92-39 125 125 0 0 1 93 39 120 120 0 0 1 38 92 145 145 0 0 1-38 94 111 111 0 0 1-93 38 135 135 0 0 1-92-38 140 140 0 0 1-39-94z m66 0a62 62 0 0 1 19-45 67 67 0 0 1 46-20 58 58 0 0 1 47 20 67 67 0 0 1 19 45 70 70 0 0 1-19 47 52 52 0 0 1-47 19 83 83 0 0 1-46-19 58 58 0 0 1-20-47z" horiz-adv-x="1000" />

<glyph glyph-name="icon-bookbub-alt" unicode="&#xe812;" d="M253 2v675h229a275 275 0 0 0 163-42 134 134 0 0 0 59-116 147 147 0 0 0-35-96 179 179 0 0 0-92-58v0a179 179 0 0 0 113-54 150 150 0 0 0 43-109 180 180 0 0 0-64-145 263 263 0 0 0-175-54z m131 575v-177h70a125 125 0 0 1 83 25 88 88 0 0 1 30 71c0 53-40 81-117 81z m0-278v-196h91a135 135 0 0 1 89 26 93 93 0 0 1 32 75c0 64-42 96-125 96z" horiz-adv-x="1000" />

<glyph glyph-name="icon-bookbub" unicode="&#xe813;" d="M227-35v750h254a306 306 0 0 0 180-46 149 149 0 0 0 66-129 163 163 0 0 0-38-107 200 200 0 0 0-102-65v0a200 200 0 0 0 125-59 166 166 0 0 0 47-121 200 200 0 0 0-71-163 291 291 0 0 0-194-60z m145 637v-196h78a139 139 0 0 1 93 28 98 98 0 0 1 32 78c0 60-44 90-130 90z m0-308v-219h100a150 150 0 0 1 100 30 103 103 0 0 1 35 82c0 71-46 106-140 106z" horiz-adv-x="1000" />

<glyph glyph-name="icon-bookmark-alt-empty" unicode="&#xe814;" d="M0-56v906h609v-1000l-304 305-305-305v94z m63 62l242 243 242-243v782h-484v-782z" horiz-adv-x="625" />

<glyph glyph-name="icon-bookmark-alt" unicode="&#xe815;" d="M0-56v906h609v-1000l-304 305-305-305v94z" horiz-adv-x="625" />

<glyph glyph-name="icon-bookmark-empty" unicode="&#xe816;" d="M643 707h-572v-693l286 274 50-47 236-227v693z m7 72q12 0 24-5 19-8 29-23t11-35v-719q0-19-11-35t-29-23q-10-4-24-4-27 0-47 18l-246 236-246-236q-20-19-46-19-13 0-25 5-18 7-29 23t-11 35v719q0 19 11 35t29 23q12 5 25 5h585z" horiz-adv-x="719" />

<glyph glyph-name="icon-bookmark" unicode="&#xe817;" d="M650 779q12 0 24-5 19-8 29-23t11-35v-719q0-19-11-35t-29-23q-10-4-24-4-27 0-47 18l-246 236-246-236q-20-19-46-19-13 0-25 5-18 7-29 23t-11 35v719q0 19 11 35t29 23q12 5 25 5h585z" horiz-adv-x="719" />

<glyph glyph-name="icon-calendar-empty" unicode="&#xe818;" d="M71-79h786v572h-786v-572z m215 679v161q0 8-5 13t-13 5h-36q-8 0-13-5t-5-13v-161q0-8 5-13t13-5h36q8 0 13 5t5 13z m428 0v161q0 8-5 13t-13 5h-35q-8 0-13-5t-5-13v-161q0-8 5-13t13-5h35q8 0 13 5t5 13z m215 36v-715q0-29-22-50t-50-21h-786q-29 0-50 21t-21 50v715q0 29 21 50t50 21h72v54q0 37 26 63t63 26h36q37 0 63-26t26-63v-54h214v54q0 37 27 63t63 26h35q37 0 63-26t27-63v-54h71q29 0 50-21t22-50z" horiz-adv-x="938" />

<glyph glyph-name="icon-calendar" unicode="&#xe819;" d="M71-79h161v161h-161v-161z m197 0h178v161h-178v-161z m-197 197h161v178h-161v-178z m197 0h178v178h-178v-178z m-197 214h161v161h-161v-161z m411-411h179v161h-179v-161z m-214 411h178v161h-178v-161z m428-411h161v161h-161v-161z m-214 197h179v178h-179v-178z m-196 482v161q0 7-6 12t-12 6h-36q-7 0-12-6t-6-12v-161q0-7 6-13t12-5h36q7 0 12 5t6 13z m410-482h161v178h-161v-178z m-214 214h179v161h-179v-161z m214 0h161v161h-161v-161z m18 268v161q0 7-5 12t-13 6h-35q-8 0-13-6t-5-12v-161q0-7 5-13t13-5h35q8 0 13 5t5 13z m215 36v-715q0-29-22-50t-50-21h-786q-29 0-50 21t-21 50v715q0 29 21 50t50 21h72v54q0 37 26 63t63 26h36q37 0 63-26t26-63v-54h214v54q0 37 27 63t63 26h35q37 0 63-26t27-63v-54h71q29 0 50-21t22-50z" horiz-adv-x="938" />

<glyph glyph-name="icon-cancel" unicode="&#xe81a;" d="M724 112q0-22-15-38l-76-76q-16-15-38-15t-38 15l-164 165-164-165q-16-15-38-15t-38 15l-76 76q-16 16-16 38t16 38l164 164-164 164q-16 16-16 38t16 38l76 76q16 16 38 16t38-16l164-164 164 164q16 16 38 16t38-16l76-76q15-15 15-38t-15-38l-164-164 164-164q15-15 15-38z" horiz-adv-x="781" />

<glyph glyph-name="icon-cart-arrow-down" unicode="&#xe81b;" d="M714 457q0 15-10 25t-25 11-26-11l-82-81v163q0 15-10 25t-25 11-25-11-11-25v-163l-82 81q-11 11-25 11t-25-11-11-25 11-25l143-143q10-10 25-10t25 10l143 143q10 11 10 25z m-357-464q0-30-21-51t-50-21-51 21-21 51 21 50 51 21 50-21 21-50z m500 0q0-30-21-51t-50-21-51 21-21 51 21 50 51 21 50-21 21-50z m72 607v-286q0-13-9-23t-23-12l-583-68q1-4 3-12t3-15 1-13q0-8-13-35h513q15 0 26-11t10-25-10-25-26-11h-571q-14 0-25 11t-11 25q0 8 6 22t17 33 11 21l-98 460h-114q-15 0-25 10t-11 25 11 26 25 10h143q9 0 16-3t11-9 7-14 4-15 3-16 3-14h670q14 0 25-11t11-25z" horiz-adv-x="1000" />

<glyph glyph-name="icon-cart-plus" unicode="&#xe81c;" d="M679 457q0 15-11 25t-25 11h-72v71q0 15-10 25t-25 11-25-11-11-25v-71h-71q-15 0-26-11t-10-25 10-25 26-11h71v-71q0-14 11-25t25-11 25 11 10 25v71h72q14 0 25 11t11 25z m-322-464q0-30-21-51t-50-21-51 21-21 51 21 50 51 21 50-21 21-50z m500 0q0-30-21-51t-50-21-51 21-21 51 21 50 51 21 50-21 21-50z m72 607v-286q0-13-9-23t-23-12l-583-68q1-4 3-12t3-15 1-13q0-8-13-35h513q15 0 26-11t10-25-10-25-26-11h-571q-14 0-25 11t-11 25q0 8 6 22t17 33 11 21l-98 460h-114q-15 0-25 10t-11 25 11 26 25 10h143q9 0 16-3t11-9 7-14 4-15 3-16 3-14h670q14 0 25-11t11-25z" horiz-adv-x="938" />

<glyph glyph-name="icon-certificate" unicode="&#xe81d;" d="M768 350l77-75q17-16 11-39-7-23-29-29l-105-27 30-103q6-23-11-39-16-18-39-11l-104 30-27-105q-5-23-28-30-7-1-11-1-17 0-28 13l-75 77-76-77q-15-17-39-12-23 7-28 30l-27 105-104-30q-23-7-39 11-17 16-10 39l29 103-105 27q-22 6-29 29-6 23 11 39l77 75-77 75q-17 16-11 39 7 23 29 29l105 27-29 103q-7 23 10 39 16 18 39 11l104-29 27 104q5 23 28 29 23 7 39-11l76-77 75 77q16 17 39 11t28-29l27-104 104 29q23 7 39-11 17-16 11-39l-30-103 105-27q22-6 29-29 6-23-11-39z" horiz-adv-x="844" />

<glyph glyph-name="icon-chat-empty" unicode="&#xe81e;" d="M393 636q-85 0-160-29t-118-79-44-107q0-45 30-88t83-73l54-32-19-46q19 11 34 21l25 18 30-6q43-8 85-8 85 0 159 29t118 79 44 106-44 107-118 79-159 29z m0 71q106 0 197-38t143-104 53-144-53-143-143-104-197-38q-48 0-98 9-70-49-155-72-21-5-48-9h-2q-6 0-12 5t-6 12q-1 1-1 3t1 4 1 3l1 3t2 3 2 3 3 3 2 2q3 3 13 14t15 16 12 17 14 21 11 25q-69 40-108 98t-40 125q0 78 53 144t143 104 197 38z m459-652q5-14 11-25t14-21 13-16 14-17 13-14q0 0 2-2t3-3 2-3 2-3l1-3t1-3 1-4-1-3q-2-8-7-13t-13-4q-27 4-48 9-85 23-155 72-50-9-98-9-151 0-263 74 32-3 49-3 90 0 172 25t148 72q69 52 107 119t37 141q0 43-13 85 72-39 114-99t42-128q0-67-40-126t-108-98z" horiz-adv-x="1000" />

<glyph glyph-name="icon-chat" unicode="&#xe81f;" d="M786 421q0-77-53-143t-143-104-197-38q-48 0-98 9-70-49-155-72-21-5-48-9h-2q-6 0-12 5t-6 12q-1 1-1 3t1 4 1 3l1 3t2 3 2 3 3 3 2 2q3 3 13 14t15 16 12 17 14 21 11 25q-69 40-108 98t-40 125q0 78 53 144t143 104 197 38 197-38 143-104 53-144z m214-142q0-67-40-126t-108-98q5-14 11-25t14-21 13-16 14-17 13-14q0 0 2-2t3-3 2-3 2-3l1-3t1-3 1-4-1-3q-2-8-7-13t-13-4q-27 4-48 9-85 23-155 72-50-9-98-9-151 0-263 74 32-3 49-3 90 0 172 25t148 72q69 52 107 119t37 141q0 43-13 85 72-39 114-99t42-128z" horiz-adv-x="1000" />

<glyph glyph-name="icon-chrome" unicode="&#xe820;" d="M498 850c-147-1-291-67-387-186l154-237c39 111 150 182 267 170l414-22c-42 84-108 157-196 208-79 46-166 67-252 67z m-416-226c-52-79-82-173-82-274 0-250 183-457 423-494l128 252c-116-22-233 39-281 146l-188 370z m885-94l-282-15c76-89 82-221 13-317l-226-347c94-6 190 15 278 66 216 125 304 387 217 613z m-467-11c-93 0-169-76-169-169s76-169 169-169 169 76 169 169-76 169-169 169z" horiz-adv-x="1000" />

<glyph glyph-name="icon-cloudapp" unicode="&#xe821;" d="M29 225a207 207 0 0 0 63 150 205 205 0 0 0 150 63l0 0v6a12 12 0 0 1 0 5 233 233 0 0 0 70 171 231 231 0 0 0 169 71 231 231 0 0 0 154-57 234 234 0 0 0 82-141h15a240 240 0 0 0 240-242 239 239 0 0 0-70-171 228 228 0 0 0-170-70 45 45 0 0 0-11 0v0h-491v0a201 201 0 0 0-142 66 212 212 0 0 0-59 149z" horiz-adv-x="1000" />

<glyph glyph-name="icon-code" unicode="&#xe822;" d="M344 69l-28-28q-5-5-12-5t-13 5l-260 260q-6 6-6 13t6 13l260 260q5 6 13 6t12-6l28-28q6-5 6-13t-6-12l-219-220 219-219q6-6 6-13t-6-13z m330 596l-208-721q-2-7-9-11t-13-1l-34 9q-8 3-11 9t-2 14l208 720q3 8 9 11t13 2l35-10q7-2 11-9t1-13z m367-364l-260-260q-6-5-13-5t-13 5l-28 28q-5 6-5 13t5 13l219 219-219 220q-5 5-5 12t5 13l28 28q6 6 13 6t13-6l260-260q5-5 5-13t-5-13z" horiz-adv-x="1063" />

<glyph glyph-name="icon-cog" unicode="&#xe823;" d="M571 350q0 59-41 101t-101 42-101-42-42-101 42-101 101-42 101 42 41 101z m286 61v-124q0-7-4-13t-11-7l-104-16q-10-30-21-51 19-27 59-77 6-6 6-13t-5-13q-15-21-55-61t-53-39q-7 0-14 5l-77 60q-25-13-51-21-9-76-16-104-4-16-20-16h-124q-8 0-14 5t-6 12l-16 103q-27 9-50 21l-79-60q-6-5-14-5t-14 6q-70 64-92 94-4 5-4 13 0 6 5 12 8 12 28 37t30 40q-15 28-23 55l-102 15q-7 1-11 7t-5 13v124q0 7 5 13t10 7l104 16q8 25 22 51-23 32-60 77-6 7-6 14 0 5 5 12 15 20 55 60t53 40q7 0 15-5l77-60q24 13 50 21 9 76 17 104 3 16 20 16h124q7 0 13-5t7-12l15-103q28-9 50-20l80 59q5 5 13 5 7 0 14-5 72-67 92-95 4-5 4-12t-4-13q-9-12-29-37t-30-40q14-28 23-54l102-16q7-1 12-7t4-13z" horiz-adv-x="844" />

<glyph glyph-name="icon-comment-2" unicode="&#xe824;" d="M978 429a333 333 0 0 0-64-197 444 444 0 0 0-175-143 547 547 0 0 0-239-53 711 711 0 0 0-77 5 567 567 0 0 0-246-149 309 309 0 0 0-60-13 19 19 0 0 0-17 6 37 37 0 0 0-9 17v0q-2 2 0 7a9 9 0 0 1 0 6q0 2 2 6l3 5 4 6 4 5q4 6 16 21l19 25q7 9 16 25t20 31a261 261 0 0 1 14 36q6 21 14 46a414 414 0 0 0-132 136 339 339 0 0 0-49 172 323 323 0 0 0 39 153 413 413 0 0 0 101 125 475 475 0 0 0 153 83 568 568 0 0 0 185 31 547 547 0 0 0 240-53 444 444 0 0 0 175-142 333 333 0 0 0 63-197z" horiz-adv-x="1000" />

<glyph glyph-name="icon-comment-empty" unicode="&#xe825;" d="M500 636q-114 0-213-39t-157-105-59-142q0-62 40-119t113-98l48-28-15-54q-13-50-39-96 85 36 154 96l24 21 31-3q39-5 73-5 114 0 213 39t157 105 59 142-59 142-157 105-213 39z m500-286q0-97-67-179t-182-130-251-48q-39 0-81 4-110-97-257-135-27-8-63-12h-3q-8 0-15 6t-9 15v1q-2 2 0 6t1 6 2 5l4 5t4 5 4 5q4 5 17 19t20 22 17 22 18 28 15 33 15 42q-88 50-138 123t-51 157q0 97 67 179t182 130 251 48 251-48 182-130 67-179z" horiz-adv-x="1000" />

<glyph glyph-name="icon-comment" unicode="&#xe826;" d="M1000 350q0-97-67-179t-182-130-251-48q-39 0-81 4-110-97-257-135-27-8-63-12-10-1-17 5t-10 16v1q-2 2 0 6t1 6 2 5l4 5t4 5 4 5q4 5 17 19t20 22 17 22 18 28 15 33 15 42q-88 50-138 123t-51 157q0 73 40 139t106 114 160 76 194 28q136 0 251-48t182-130 67-179z" horiz-adv-x="1000" />

<glyph glyph-name="icon-copyright" unicode="&#xe827;" d="M642 251v-61q0-28-21-50t-52-34-66-18-65-6q-115 0-192 78t-76 193q0 113 76 189t189 76q19 0 42-3t52-10 51-19 39-31 15-45v-61q0-9-8-9h-66q-9 0-9 9v39q0 24-37 38t-76 13q-79 0-128-51t-49-132q0-85 51-140t130-55q38 0 77 14t39 37v39q0 4 3 6t5 3h67q3 0 6-3t3-6z m-213 456q-73 0-139-28t-114-76-76-114-29-139 29-139 76-113 114-77 139-28 138 28 114 77 76 113 29 139-29 139-76 114-114 76-138 28z m428-357q0-117-57-215t-156-156-215-58-216 58-155 156-58 215 58 215 155 156 216 58 215-58 156-156 57-215z" horiz-adv-x="844" />

<glyph glyph-name="icon-diamond" unicode="&#xe828;" d="M137 435l279-296-134 296z m363-344l156 344h-311z m-217 402l92 171h-118l-128-171z m302-354l278 296h-145z m-237 354h305l-92 171h-122z m369 0h155l-129 171h-118z m63 217l172-229a31 31 0 0 0 5-19 23 23 0 0 0-8-17l-428-458a28 28 0 0 0-21-9 25 25 0 0 0-21 9l-429 458a27 27 0 0 0-8 17 25 25 0 0 0 6 19l173 229a25 25 0 0 0 22 12h514a25 25 0 0 0 23-12z" horiz-adv-x="1000" />

<glyph glyph-name="icon-down-dir" unicode="&#xe829;" d="M571 457q0-14-10-25l-250-250q-11-11-25-11t-25 11l-250 250q-11 11-11 25t11 25 25 11h500q14 0 25-11t10-25z" horiz-adv-x="563" />

<glyph glyph-name="icon-down-open" unicode="&#xe82a;" d="M939 399l-414-413q-10-11-25-11t-25 11l-414 413q-11 11-11 26t11 25l92 92q11 11 26 11t25-11l296-296 296 296q11 11 25 11t26-11l92-92q11-11 11-25t-11-26z" horiz-adv-x="1000" />

<glyph glyph-name="icon-download-cloud" unicode="&#xe82b;" d="M714 332q0 8-5 13t-13 5h-125v196q0 8-5 13t-12 5h-108q-7 0-12-5t-5-13v-196h-125q-8 0-13-5t-5-13 5-13l196-196q5-5 13-5t13 5l196 196q5 6 5 13z m357-125q0-89-62-151t-152-63h-607q-103 0-177 73t-73 177q0 72 39 134t105 92q-1 17-1 24 0 118 84 202t202 84q87 0 159-49t105-129q40 35 93 35 59 0 101-42t42-101q0-43-23-77 72-17 119-76t46-133z" horiz-adv-x="1063" />

<glyph glyph-name="icon-download" unicode="&#xe82c;" d="M714 100q0 15-10 25t-25 11-26-11-10-25 10-25 26-11 25 11 10 25z m143 0q0 15-10 25t-26 11-25-11-10-25 10-25 25-11 26 11 10 25z m72 125v-179q0-22-16-37t-38-16h-821q-23 0-38 16t-16 37v179q0 22 16 38t38 16h259l75-76q33-32 76-32t76 32l76 76h259q22 0 38-16t16-38z m-182 318q10-23-8-40l-250-250q-10-10-25-10t-25 10l-250 250q-17 17-8 40 10 21 33 21h143v250q0 15 11 25t25 11h143q14 0 25-11t10-25v-250h143q24 0 33-21z" horiz-adv-x="938" />

<glyph glyph-name="icon-dropbox" unicode="&#xe82d;" d="M221 454l279-172-193-161-276 179z m557-313v-61l-278-166 0 0v0l-276 166v61l83-55 193 161v0l0 0 194-161z m-471 646l193-162-279-171-190 153z m472-333l191-154-277-179-193 161z m-86 333l277-180-191-153-279 171z" horiz-adv-x="1000" />

<glyph glyph-name="icon-ello" unicode="&#xe82e;" d="M500 797a447 447 0 1 1 447-447 447 447 0 0 1-447 447z m259-514a267 267 0 0 0-518 0 25 25 0 0 0 18 31 25 25 0 0 0 31-18 217 217 0 0 1 420 0 25 25 0 0 0 31 18 25 25 0 0 0 18-31z" horiz-adv-x="1000" />

<glyph glyph-name="icon-evernote" unicode="&#xe82f;" d="M103 532a86 86 0 0 0 14 55 52 52 0 0 0 25 20 100 100 0 0 0 44 8h89a36 36 0 0 1 36 35q0 20 0 42v56a77 77 0 0 0 11 42 84 84 0 0 0 48 29 133 133 0 0 0 50 6h18a289 289 0 0 0 93-16 70 70 0 0 0 42-59q25 0 45 0a630 630 0 0 0 85-5 650 650 0 0 0 122-22 75 75 0 0 0 50-64 1893 1893 0 0 0 17-200q5-85 5-140a637 637 0 0 0-3-67 1187 1187 0 0 0-40-242 464 464 0 0 0-27-65 208 208 0 0 0-25-40 78 78 0 0 0-35-22 157 157 0 0 0-40-9q-17 0-56 0-103 0-138 24t-36 102a202 202 0 0 0 9 69 58 58 0 0 0 32 35 162 162 0 0 0 43 12q15 0 38 0h27a13 13 0 0 0 6 0q2 0 0-5a17 17 0 0 1-2-7 29 29 0 0 0-3-11 22 22 0 0 1-2-12 79 79 0 0 1 2-17 25 25 0 0 0 0-11q0-3-7-3h-27q-10 0-10-2t-7-2q-8 0-8-4t-6-6q-5-2-3-8a14 14 0 0 0 0-12 54 54 0 0 1 3-22 62 62 0 0 1 8-13 27 27 0 0 1 17-7 157 157 0 0 1 21-2h30a125 125 0 0 1 70 13q15 12 15 61a193 193 0 0 1-18 98 70 70 0 0 1-54 29 575 575 0 0 0-113 19q-50 19-50 113a2 2 0 0 1-2 2 3 3 0 0 1-3-2 354 354 0 0 0-17-114l-7-22a38 38 0 0 0-36-25h-5a200 200 0 0 0-52 7 707 707 0 0 0-188 45 72 72 0 0 0-36 38 561 561 0 0 0-33 123q-17 89-23 126a432 432 0 0 0-3 49z m5 113v2l175 171 0 0-2-6a93 93 0 0 1-11-46q0-21 0-97a9 9 0 0 0-9-10h-88a138 138 0 0 1-56-9z m540-275a310 310 0 0 0 44 2 188 188 0 0 0 77-17q0 81-58 83h-3a48 48 0 0 1-42-19 107 107 0 0 1-18-50z" horiz-adv-x="1000" />

<glyph glyph-name="icon-facebook" unicode="&#xe830;" d="M240 314v185h149v93a242 242 0 0 0 66 171 208 208 0 0 0 157 70h148v-184h-148a33 33 0 0 1-25-16 64 64 0 0 1-12-40v-94h186v-185h-186v-447h-186v447z" horiz-adv-x="1000" />

<glyph glyph-name="icon-feather" unicode="&#xe831;" d="M884-87q17-13-2-27a30 30 0 0 0-37-2 746 746 0 0 0-189 127 361 361 0 0 0-308 66 600 600 0 0 1 83 0 708 708 0 0 1 89 12q39 8 39 18t-75 30q-75 21-156 50a377 377 0 0 0-134 80 318 318 0 0 0-59 108 423 423 0 0 0-27 121 332 332 0 0 1 75-64 228 228 0 0 1 69-32q30-6 37 8t-79 120q-85 109-74 141a225 225 0 0 0 68 94q54 50 89 51a126 126 0 0 0 72-28 162 162 0 0 0 62-67q25-56 4-156a836 836 0 0 1-19-113q3-18 35 0 64 32 82 154a312 312 0 0 0 56-166 436 436 0 0 0-13-134q-15-50-10-53 20-13 67 25a119 119 0 0 1 50 87 282 282 0 0 0 53-88 180 180 0 0 0 13-62 354 354 0 0 0-17-73q-16-52-23-81z" horiz-adv-x="1000" />

<glyph glyph-name="icon-file-code" unicode="&#xe832;" d="M819 638q16-16 27-42t11-50v-642q0-23-15-38t-38-16h-750q-23 0-38 16t-16 38v892q0 23 16 38t38 16h500q22 0 49-11t42-27z m-248 136v-210h210q-5 16-12 23l-175 175q-6 7-23 12z m215-853v572h-232q-23 0-38 15t-16 38v233h-429v-858h715z m-518 500q4 7 12 7t13-3l28-21q7-5 7-12t-3-14l-102-135 102-136q4-6 3-13t-7-12l-28-21q-6-4-13-4t-12 7l-126 168q-8 11 0 21z m447-168q8-10 0-21l-126-168q-4-6-11-7t-14 4l-28 21q-6 5-7 12t3 13l102 136-102 135q-4 7-3 14t7 12l28 21q6 4 14 3t11-7z m-346-257q-7 1-11 7t-3 14l77 464q1 7 7 11t14 3l35-5q7-2 11-8t3-13l-77-464q-1-7-7-11t-13-3z" horiz-adv-x="844" />

<glyph glyph-name="icon-firefox" unicode="&#xe833;" d="M504-137c-216 0-387 126-466 306-87 200-17 521 139 663l-6-156c8 9 68 12 78-1 32 62 136 109 220 110-32-26-106-124-99-174 40-13 103-13 136-15 10-6 8-40-12-68-27-36-97-49-97-49l8-106-77 38c-26-64 35-120 97-110 69 12 94 57 142 54 49-2 68-29 61-54-7-30-59-25-59-25-44-70-103-100-198-92 144-119 338-11 387 86 50 97 7 242-43 283 59-25 99-51 120-107 11 124-46 266-149 349 193-56 311-205 314-444s-211-488-496-488z" horiz-adv-x="1000" />

<glyph glyph-name="icon-flashlight" unicode="&#xe834;" d="M863 713a347 347 0 0 0 87-132q24-70-5-94l-137-137a132 132 0 0 0-63-26 294 294 0 0 0-98-4l-417-418a56 56 0 0 0-58-6 181 181 0 0 0-77 50 200 200 0 0 0-50 75 53 53 0 0 0 5 59l417 417a294 294 0 0 0 4 98 132 132 0 0 0 27 63l139 139q24 28 94 3a358 358 0 0 0 132-87z m-457-416q32-33 81 14t15 84a42 42 0 0 1-39 10 82 82 0 0 1-45-25 75 75 0 0 1-24-44 48 48 0 0 1 12-39z m344 303a286 286 0 0 1 70-50 259 259 0 0 1 63-25q25-5 28 0a65 65 0 0 1-4 28 295 295 0 0 1-26 61 294 294 0 0 1-50 68 304 304 0 0 1-68 50 277 277 0 0 1-63 26q-23 7-27 2t0-28a259 259 0 0 1 25-63 277 277 0 0 1 52-69z" horiz-adv-x="1000" />

<glyph glyph-name="icon-flickr" unicode="&#xe835;" d="M248 152a185 185 0 0 0-136 58 192 192 0 0 0-58 140 193 193 0 0 0 57 141 186 186 0 0 0 137 57 186 186 0 0 0 138-57 193 193 0 0 0 57-141 192 192 0 0 0-58-140 185 185 0 0 0-137-58z m504 0a185 185 0 0 0-137 58 192 192 0 0 0-57 140 193 193 0 0 0 56 141 194 194 0 0 0 275 0 193 193 0 0 0 57-141 192 192 0 0 0-57-140 185 185 0 0 0-137-58z" horiz-adv-x="1000" />

<glyph glyph-name="icon-folder" unicode="&#xe836;" d="M978 305a50 50 0 0 0-16-33l-171-202a178 178 0 0 0-61-43 175 175 0 0 0-75-19h-551a67 67 0 0 0-30 7 25 25 0 0 0-14 22 54 54 0 0 0 15 33l171 202a178 178 0 0 0 61 43 175 175 0 0 0 73 19h554a73 73 0 0 0 31-7 22 22 0 0 0 13-22z m-175 175v-82h-422a241 241 0 0 1-100-23 238 238 0 0 1-84-61l-172-202-2-3a39 39 0 0 1 0 7 11 11 0 0 0 0 6v489a110 110 0 0 0 33 80 110 110 0 0 0 80 34h164a110 110 0 0 0 80-34 110 110 0 0 0 34-80v-16h275a115 115 0 0 0 114-114z" horiz-adv-x="1000" />

<glyph glyph-name="icon-github" unicode="&#xe837;" d="M25 350a457 457 0 0 0 38 184 459 459 0 0 0 253 253 466 466 0 0 0 368 0 463 463 0 0 0 252-252 466 466 0 0 0 0-368 466 466 0 0 0-252-254 466 466 0 0 0-368 0 462 462 0 0 0-252 254 457 457 0 0 0-39 183z m75 0a387 387 0 0 1 80-239 427 427 0 0 1 206-148v75a93 93 0 0 0 39 85 273 273 0 0 0-45 7 225 225 0 0 0-82 30q-88 52-88 190a171 171 0 0 0 48 122 160 160 0 0 0 5 121h19a78 78 0 0 0 25-5 327 327 0 0 0 82-41 448 448 0 0 0 114 15 459 459 0 0 0 115-15 405 405 0 0 0 70 38 103 103 0 0 0 43 9l12 0a166 166 0 0 0 5-121 171 171 0 0 0 46-123q0-106-53-160a191 191 0 0 0-75-48 327 327 0 0 0-86-18 95 95 0 0 0 39-83v-75a430 430 0 0 1 202 150 387 387 0 0 1 79 234 400 400 0 0 1-31 156 404 404 0 0 1-369 244 404 404 0 0 1-156-32 418 418 0 0 1-127-84 441 441 0 0 1-85-127 400 400 0 0 1-32-157z" horiz-adv-x="1000" />

<glyph glyph-name="icon-goodreads" unicode="&#xe838;" d="M700 822v-83a220 220 0 0 1-59 57 265 265 0 0 1-144 42 248 248 0 0 1-209-105 403 403 0 0 1-72-243 418 418 0 0 1 68-245c47-68 119-103 214-104a239 239 0 0 1 202 102v-84c0-10 0-28-2-50a250 250 0 0 0-23-75 158 158 0 0 0-59-62 204 204 0 0 0-114-29 196 196 0 0 0-119 36 147 147 0 0 0-56 112l-1 17h-82l1-20c5-81 32-140 82-175a296 296 0 0 1 175-50 297 297 0 0 1 163 39 223 223 0 0 1 85 95 333 333 0 0 1 30 105c2 32 4 55 4 69v651z m-52-520a168 168 0 0 0-150-80 167 167 0 0 0-148 78 330 330 0 0 0-53 190 340 340 0 0 0 53 187 166 166 0 0 0 147 80 174 174 0 0 0 151-78 339 339 0 0 0 52-189 333 333 0 0 0-50-188z" horiz-adv-x="1000" />

<glyph glyph-name="icon-google-groups" unicode="&#xe839;" d="M600 831a367 367 0 0 0 270-111 364 364 0 0 0 111-267 370 370 0 0 0-100-258 358 358 0 0 0-247-120 322 322 0 0 0-117-147 305 305 0 0 0-180-58 304 304 0 0 0-225 94 307 307 0 0 0-92 223 307 307 0 0 0 55 181 318 318 0 0 0 146 116 368 368 0 0 0 122 246 366 366 0 0 0 257 101z m-263-856a194 194 0 0 1 182 105 373 373 0 0 0-288 289 194 194 0 0 1-106-182 204 204 0 0 1 62-150 204 204 0 0 1 150-62z m4 422a259 259 0 0 1 73-135 268 268 0 0 1 134-72 205 205 0 0 1-63 144 205 205 0 0 1-144 64z m314-207a256 256 0 0 1 151 92 260 260 0 0 1 60 170 254 254 0 0 1-79 188 264 264 0 0 1-355 16 250 250 0 0 1-90-152 308 308 0 0 0 220-93 308 308 0 0 0 93-220z m-527 417a106 106 0 0 0-75 31 100 100 0 0 0-32 75 103 103 0 0 0 31 78 106 106 0 0 0 75 31 107 107 0 0 0 110-108 103 103 0 0 0-31-75 105 105 0 0 0-78-32z m0 168a55 55 0 0 1-41-18 60 60 0 0 1-17-42 58 58 0 0 1 17-41 55 55 0 0 1 41-18 58 58 0 0 1 43 18 56 56 0 0 1 18 41 58 58 0 0 1-18 42 58 58 0 0 1-43 18z" horiz-adv-x="1000" />

<glyph glyph-name="icon-google-play" unicode="&#xe83a;" d="M692 350a28 28 0 0 1-14 27l-256 160a30 30 0 0 1-33 0 30 30 0 0 1-17-28v-319a30 30 0 0 1 17-28 38 38 0 0 1 16-3 32 32 0 0 1 17 4l256 160a28 28 0 0 1 14 27z m256 0q0-48 0-75t-4-68a364 364 0 0 0-11-73 119 119 0 0 0-34-62 102 102 0 0 0-63-29 3243 3243 0 0 0-335-12 3243 3243 0 0 0-335 12 105 105 0 0 0-62 29 117 117 0 0 0-35 62q-7 32-11 73a498 498 0 0 0-4 68q0 27 0 75a586 586 0 0 0 0 75q3 27 4 68a250 250 0 0 0 11 73 119 119 0 0 0 34 62 102 102 0 0 0 63 29 3243 3243 0 0 0 334 13 3243 3243 0 0 0 335-13 105 105 0 0 0 63-29 117 117 0 0 0 35-61 567 567 0 0 0 10-74q4-41 4-68t1-75z" horiz-adv-x="1000" />

<glyph glyph-name="icon-gplus-old" unicode="&#xe83b;" d="M41 434a225 225 0 0 1 20-23 219 219 0 0 1 160-61q9 0 43 3-2-6-10-26a80 80 0 0 1-4-27 156 156 0 0 1 40-92 635 635 0 0 1-93-8 511 511 0 0 1-156-48v-309h393a294 294 0 0 1 35 23 232 232 0 0 1 66 82 246 246 0 0 1 25 96 192 192 0 0 1-38 119 350 350 0 0 1-75 75 310 310 0 0 0-35 30 83 83 0 0 0-38 61q0 35 50 80 17 14 41 40a193 193 0 0 1 35 59 200 200 0 0 1 14 79 237 237 0 0 1-25 106 184 184 0 0 1-69 77h83l83 48h-270a573 573 0 0 1-116-12 255 255 0 0 1-145-88q-8-9-14-18z m365-321a56 56 0 0 1 10-10q9-8 14-13a58 58 0 0 0 9-11 14 14 0 0 0 3-6 17 17 0 0 1 5-6 29 29 0 0 0 5-8 114 114 0 0 0 11-21 171 171 0 0 0 8-47 132 132 0 0 0-17-67 127 127 0 0 0-46-47 252 252 0 0 0-133-33 310 310 0 0 0-153 39 153 153 0 0 0-58 52 132 132 0 0 0-22 75 129 129 0 0 0 17 67 172 172 0 0 0 104 75 443 443 0 0 0 132 20q10 0 31-3a145 145 0 0 0 17-12 138 138 0 0 1 22-14 457 457 0 0 0 41-30z m-263 619a112 112 0 0 0 89 43 120 120 0 0 0 73-25 170 170 0 0 0 52-66 363 363 0 0 0 40-159 160 160 0 0 0-28-100 100 100 0 0 0-85-35 130 130 0 0 0-61 15 220 220 0 0 0-83 100 291 291 0 0 0-30 125 159 159 0 0 0 33 102z m420-71h159v157h78v-157h159v-79h-159v-160h-78v160h-159z" horiz-adv-x="1000" />

<glyph glyph-name="icon-gplus" unicode="&#xe83c;" d="M327 408q0-60 0-120h169a145 145 0 0 0-62-96 177 177 0 0 0-69-27 203 203 0 0 0-75 0 182 182 0 0 0-67 30 192 192 0 0 0-71 95 187 187 0 0 0 0 120 192 192 0 0 0 45 73 182 182 0 0 0 183 48 168 168 0 0 0 67-40l57 57c10 10 20 20 30 31a300 300 0 0 1-100 61 310 310 0 0 1-384-151 308 308 0 0 1 0-278 312 312 0 0 1 84-103 308 308 0 0 1 113-56 331 331 0 0 1 158-2 280 280 0 0 1 127 66 281 281 0 0 1 78 128 363 363 0 0 1 8 164h-291z m656-6h-106v105h-77v-105h-106v-77h106v-106h77v106h106z" horiz-adv-x="1000" />

<glyph glyph-name="icon-heart-filled" unicode="&#xe83d;" d="M500-71a36 36 0 0 0-25 9l-341 331-15 14q-10 10-30 36a440 440 0 0 0-39 54 361 361 0 0 0-28 65 232 232 0 0 0-13 75 250 250 0 0 0 70 190 268 268 0 0 0 192 68 217 217 0 0 0 69-11 268 268 0 0 0 66-33q30-20 53-37a280 280 0 0 0 41-37q20 19 41 37a518 518 0 0 0 53 37 361 361 0 0 0 66 33 181 181 0 0 0 69 11 262 262 0 0 0 192-68 253 253 0 0 0 70-189q0-121-125-246l-341-330a33 33 0 0 0-25-9z" horiz-adv-x="1000" />

<glyph glyph-name="icon-heart-outline" unicode="&#xe83e;" d="M918 513a235 235 0 0 1-11 78 157 157 0 0 1-31 53 132 132 0 0 1-44 33 295 295 0 0 1-50 17 179 179 0 0 1-54 4 212 212 0 0 1-60-14 221 221 0 0 1-62-34q-29-25-46-40a400 400 0 0 1-34-33 34 34 0 0 0-52 0q-14 15-34 33a529 529 0 0 1-46 40 307 307 0 0 1-61 35 139 139 0 0 1-60 14q-27 0-54-4a125 125 0 0 1-50-18 328 328 0 0 1-45-33 104 104 0 0 1-30-53 363 363 0 0 1-12-78q0-91 102-193l316-304 316 304q102 102 102 193z m70 0q0-120-125-245l-338-327a35 35 0 0 0-49 0l-339 328-15 15q-10 9-30 35a437 437 0 0 0-37 54 359 359 0 0 0-30 65 231 231 0 0 0-13 75 250 250 0 0 0 70 187 266 266 0 0 0 191 68 215 215 0 0 0 68-11 266 266 0 0 0 66-32q30-20 52-37a278 278 0 0 0 41-38q20 20 41 37a514 514 0 0 0 53 38 359 359 0 0 0 65 32 180 180 0 0 0 68 12 260 260 0 0 0 191-69 250 250 0 0 0 70-187z" horiz-adv-x="1000" />

<glyph glyph-name="icon-help" unicode="&#xe83f;" d="M393 149v-134q0-9-7-16t-15-6h-134q-9 0-16 6t-7 16v134q0 9 7 16t16 6h134q8 0 15-6t7-16z m176 335q0-30-8-56t-20-43-31-33-32-25-34-19q-23-13-38-37t-15-37q0-10-7-18t-16-9h-134q-8 0-14 10t-6 21v26q0 46 37 87t79 60q33 15 47 32t14 42q0 23-26 41t-60 18q-36 0-60-16-20-14-60-64-7-9-17-9-7 0-14 4l-91 70q-8 6-9 14t3 16q89 148 259 148 45 0 90-17t81-46 59-72 23-88z" horiz-adv-x="563" />

<glyph glyph-name="icon-html5" unicode="&#xe840;" d="M750 545l10 103h-520l27-314h361l-13-135-115-31-116 31-9 82h-103l14-163 214-58h0l211 58 30 320h-378l-9 107z m-664 276h829l-76-846-339-96-339 96z" horiz-adv-x="1000" />

<glyph glyph-name="icon-ie" unicode="&#xe841;" d="M844 850c-81-1-181-46-281-106-239 35-498-103-509-386 60 93 224 257 367 301v-13c-179-90-571-612-360-773 90-69 310 37 344 76 29-5 59-8 89-8 201 0 371 124 424 292h-301c-13-56-56-92-121-92-102 0-126 68-126 151h561c29 204-114 385-306 439 174 115 363 161 299-104h20c35 109 21 191-38 213-18 7-37 10-58 10-1 0-3 0-4 0z m-352-303c79 0 128-48 128-129h-252c0 77 46 129 124 129z m-367-422c58-83 149-145 256-171-77-58-226-84-266-52-48 40-36 124 10 223z" horiz-adv-x="938" />

<glyph glyph-name="icon-info-circled" unicode="&#xe842;" d="M571 82v89q0 8-5 13t-12 5h-54v286q0 8-5 13t-13 5h-178q-8 0-13-5t-5-13v-89q0-8 5-13t13-5h53v-179h-53q-8 0-13-5t-5-13v-89q0-8 5-13t13-5h250q7 0 12 5t5 13z m-71 500v89q0 8-5 13t-13 5h-107q-8 0-13-5t-5-13v-89q0-8 5-13t13-5h107q8 0 13 5t5 13z m357-232q0-117-57-215t-156-156-215-58-216 58-155 156-58 215 58 215 155 156 216 58 215-58 156-156 57-215z" horiz-adv-x="844" />

<glyph glyph-name="icon-info" unicode="&#xe843;" d="M357 100v-71q0-15-10-25t-26-11h-285q-15 0-25 11t-11 25v71q0 15 11 25t25 11h35v214h-35q-15 0-25 11t-11 25v71q0 15 11 25t25 11h214q15 0 25-11t11-25v-321h35q15 0 26-11t10-25z m-71 643v-107q0-15-11-25t-25-11h-143q-14 0-25 11t-11 25v107q0 14 11 25t25 11h143q15 0 25-11t11-25z" horiz-adv-x="344" />

<glyph glyph-name="icon-instagram" unicode="&#xe844;" d="M774 350a216 216 0 0 1-6 53h185v-362a140 140 0 0 0-41-101 134 134 0 0 0-100-42h-623a134 134 0 0 0-100 42 140 140 0 0 0-41 101v362h183a452 452 0 0 1-5-53 265 265 0 0 1 80-192 262 262 0 0 1 194-82 263 263 0 0 1 193 81 263 263 0 0 1 81 193z m38 453a136 136 0 0 0 100-41 136 136 0 0 0 41-100v-154h-230a260 260 0 0 1-223 116 253 253 0 0 1-223-116h-229v154a136 136 0 0 0 41 100 136 136 0 0 0 100 41z m67-175v75a22 22 0 0 1-25 25h-75a22 22 0 0 1-25-25v-75a25 25 0 0 1 7-17 23 23 0 0 1 18-9h75a22 22 0 0 1 25 26z m-210-278a169 169 0 0 0-169-168 169 169 0 0 0-168 168 161 161 0 0 0 50 120 164 164 0 0 0 118 49 164 164 0 0 0 119-49 161 161 0 0 0 50-120z" horiz-adv-x="1000" />

<glyph glyph-name="icon-jsfiddle" unicode="&#xe845;" d="M846 379a178 178 0 0 0 81-65 165 165 0 0 0 30-100 169 169 0 0 0-52-125 175 175 0 0 0-128-52h-552a197 197 0 0 0-129 56 168 168 0 0 0-52 125 174 174 0 0 0 25 90 184 184 0 0 0 64 67 121 121 0 0 0-5 37 118 118 0 0 0 37 88 125 125 0 0 0 88 37 123 123 0 0 0 77-27 273 273 0 0 0 100 112 258 258 0 0 0 145 41 269 269 0 0 0 137-36 272 272 0 0 0 100-98 252 252 0 0 0 36-134v-8a28 28 0 0 0-2-8z m-594-119a108 108 0 0 1 37-86 138 138 0 0 1 93-32 148 148 0 0 1 107 44l-21 25q-13 16-20 23a91 91 0 0 0-64-29 60 60 0 0 0-41 15 53 53 0 0 0-18 40 49 49 0 0 0 18 38 61 61 0 0 0 41 15 81 81 0 0 0 37-9 133 133 0 0 0 33-25 313 313 0 0 0 29-34q14-19 30-36a410 410 0 0 1 35-34 121 121 0 0 1 44-25 221 221 0 0 1 53-9 134 134 0 0 1 91 32 109 109 0 0 1 39 86 105 105 0 0 1-37 85 143 143 0 0 1-93 31 148 148 0 0 1-108-43l13-15q7-8 15-19a166 166 0 0 1 13-15 90 90 0 0 0 63 29 66 66 0 0 0 42-15 44 44 0 0 0 17-37 52 52 0 0 0-16-41 60 60 0 0 0-42-15 81 81 0 0 0-37 8 108 108 0 0 0-32 25l-29 34-31 38a199 199 0 0 1-35 33 236 236 0 0 1-43 25 111 111 0 0 1-53 8 139 139 0 0 1-92-31 107 107 0 0 1-38-84z" horiz-adv-x="1000" />

<glyph glyph-name="icon-left-dir" unicode="&#xe846;" d="M357 600v-500q0-14-10-25t-26-11-25 11l-250 250q-10 11-10 25t10 25l250 250q11 11 25 11t26-11 10-25z" horiz-adv-x="344" />

<glyph glyph-name="icon-left-open" unicode="&#xe847;" d="M653 682l-296-296 296-297q11-10 11-25t-11-25l-92-93q-11-10-25-10t-25 10l-414 415q-11 10-11 25t11 25l414 414q10 10 25 10t25-10l92-93q11-10 11-25t-11-25z" horiz-adv-x="719" />

<glyph glyph-name="icon-link-ext" unicode="&#xe848;" d="M786 332v-178q0-67-47-114t-114-47h-464q-67 0-114 47t-47 114v464q0 66 47 113t114 48h393q7 0 12-5t5-13v-36q0-8-5-13t-12-5h-393q-37 0-63-26t-27-63v-464q0-37 27-63t63-27h464q37 0 63 27t26 63v178q0 8 5 13t13 5h36q8 0 13-5t5-13z m214 482v-285q0-15-11-26t-25-10-25 10l-98 99-364-364q-5-6-13-6t-13 6l-63 63q-6 6-6 13t6 13l364 364-99 98q-10 11-10 25t10 25 26 11h285q15 0 25-11t11-25z" horiz-adv-x="1000" />

<glyph glyph-name="icon-link" unicode="&#xe849;" d="M1000 583q0-112-78-188l-175-176q-78-78-189-78-97 0-171 63l115 115q26-17 56-17 44 0 75 31l175 176q31 29 31 74 0 44-30 75t-75 30q-25 0-49-12t-33-34h-238l132 129q80 78 188 78 110 0 188-78t78-188z m-387-89l-115-115q-26 17-56 17-44 0-75-31l-175-176q-31-29-31-74 0-44 31-74t74-31q25 0 50 12t32 34h238l-132-129q-80-78-188-78-110 0-188 78t-78 188q0 112 78 188l175 176q78 78 189 78 97 0 171-63z" horiz-adv-x="1000" />

<glyph glyph-name="icon-linkedin" unicode="&#xe84a;" d="M237 512v-625h-208v625z m13 193a100 100 0 0 0-33-77 119 119 0 0 0-84-30h0a115 115 0 0 0-85 30 102 102 0 0 0-32 77 100 100 0 0 0 34 77 119 119 0 0 0 84 30 115 115 0 0 0 83-30 106 106 0 0 0 33-77z m734-459v-358h-207v334a180 180 0 0 1-27 103 91 91 0 0 1-80 37 100 100 0 0 1-66-21 147 147 0 0 1-40-54 156 156 0 0 1-7-50v-351h-207q0 252 0 408v188l0 30h208v-90h0a223 223 0 0 0 25 35 390 390 0 0 0 35 33 141 141 0 0 0 55 27 316 316 0 0 0 72 10 224 224 0 0 0 173-71q66-71 66-210z" horiz-adv-x="1000" />

<glyph glyph-name="icon-location" unicode="&#xe84b;" d="M133 473a357 357 0 0 0 107 260 350 350 0 0 0 260 108 360 360 0 0 0 260-108 353 353 0 0 0 108-260 305 305 0 0 0-52-188l-316-420-316 420a305 305 0 0 0-51 188z m213 0a153 153 0 0 1 154-154 153 153 0 0 1 154 154 153 153 0 0 1-154 154 153 153 0 0 1-154-154z" horiz-adv-x="1000" />

<glyph glyph-name="icon-login" unicode="&#xe84c;" d="M661 350q0-14-11-25l-303-304q-11-10-26-10t-25 10-10 25v161h-250q-15 0-25 11t-11 25v214q0 15 11 25t25 11h250v161q0 14 10 25t25 10 26-10l303-304q11-10 11-25z m196 196v-392q0-67-47-114t-114-47h-178q-7 0-13 5t-5 13q0 2-1 11t0 15 2 13 5 11 12 3h178q37 0 63 27t27 63v392q0 37-27 63t-63 27h-174t-6 0-6 2-5 3-4 5-1 8q0 2-1 11t0 15 2 13 5 11 12 3h178q67 0 114-47t47-114z" horiz-adv-x="844" />

<glyph glyph-name="icon-logout" unicode="&#xe84d;" d="M357 46q0-2 1-11t0-14-2-14-5-11-12-3h-178q-67 0-114 47t-47 114v392q0 67 47 114t114 47h178q8 0 13-5t5-13q0-2 1-11t0-15-2-13-5-11-12-3h-178q-37 0-63-27t-27-63v-392q0-37 27-63t63-27h174t6 0 7-2 4-3 4-5 1-8z m518 304q0-14-11-25l-303-304q-11-10-25-10t-25 10-11 25v161h-250q-14 0-25 11t-11 25v214q0 15 11 25t25 11h250v161q0 14 11 25t25 10 25-10l303-304q11-10 11-25z" horiz-adv-x="938" />

<glyph glyph-name="icon-email" unicode="&#xe84e;" d="M957 478v-405a79 79 0 0 0-25-57 82 82 0 0 0-57-25h-750a79 79 0 0 0-57 25 75 75 0 0 0-25 57v405a275 275 0 0 1 50-45q184-125 254-175 29-22 46-33a270 270 0 0 1 49-25 135 135 0 0 1 55-12h3a153 153 0 0 1 57 12 237 237 0 0 1 48 25q19 13 47 34 87 62 254 175a281 281 0 0 1 51 44z m0 150a135 135 0 0 0-25-77 244 244 0 0 0-62-63q-192-133-240-165l-21-16-27-20a201 201 0 0 0-27-16 259 259 0 0 0-30-14 58 58 0 0 0-25-4h0a79 79 0 0 0-25 4 181 181 0 0 0-30 14 265 265 0 0 0-27 16l-27 20-21 16-135 92q-88 60-104 73a234 234 0 0 0-60 59 128 128 0 0 0-28 70 103 103 0 0 0 21 66 73 73 0 0 0 61 26h750a77 77 0 0 0 57-25 82 82 0 0 0 25-56z" horiz-adv-x="1000" />

<glyph glyph-name="icon-mail-outline" unicode="&#xe84f;" d="M913 58v413a329 329 0 0 0-38-36q-143-110-228-181-27-23-45-37a215 215 0 0 0-46-25 138 138 0 0 0-55-12h-1a143 143 0 0 0-55 12 188 188 0 0 0-46 25l-44 37q-86 71-230 181a329 329 0 0 0-37 36v-413a16 16 0 0 1 5-12 18 18 0 0 1 12-5h791a16 16 0 0 1 11 5 21 21 0 0 1 6 12z m0 565v13l0 7 0 7-3 4q-3 5-4 4t-8 2h-794a15 15 0 0 1-11-6 25 25 0 0 1-6-11 189 189 0 0 1 79-153q104-81 216-171a150 150 0 0 0 19-15q16-14 25-20t25-17q16-9 27-15a43 43 0 0 1 23-5h-1a65 65 0 0 1 23 5 119 119 0 0 1 27 15q15 11 25 17a137 137 0 0 1 25 20 61 61 0 0 0 19 15q112 90 216 171a252 252 0 0 1 54 62 136 136 0 0 1 24 71z m69 20v-585a83 83 0 0 0-25-61 86 86 0 0 0-61-25h-792a83 83 0 0 0-60 25 80 80 0 0 0-25 61v585a83 83 0 0 0 25 61 83 83 0 0 0 60 25h792a86 86 0 0 0 86-86z" horiz-adv-x="1000" />

<glyph glyph-name="icon-medium" unicode="&#xe850;" d="M937 107v-102h-312v102h66v450h-4l-154-552h-119l-150 553h-3v-450h64v-103h-262v102h34a34 34 0 0 1 21 9 23 23 0 0 1 11 19v429a29 29 0 0 1-11 19 35 35 0 0 1-21 11h-34v102h328l107-400h4l108 400h327v-102h-35a31 31 0 0 1-20-11q-11-11-10-19v-430a25 25 0 0 1 10-18 38 38 0 0 1 20-9z" horiz-adv-x="1000" />

<glyph glyph-name="icon-meetup" unicode="&#xe851;" d="M418 162a98 98 0 0 1-20-17 98 98 0 0 0-19-17 32 32 0 0 0-33 0 67 67 0 0 0-27 27 150 150 0 0 0-14 33 292 292 0 0 1 33 16 145 145 0 0 0 35 14 247 247 0 0 1-22 50 359 359 0 0 1-47 64l-22-6a110 110 0 0 1-25-9 57 57 0 0 1-27-45 153 153 0 0 1 4-62 227 227 0 0 1 21-53 125 125 0 0 1 56-57 77 77 0 0 1 72 8 225 225 0 0 1 61 53 22 22 0 0 1-26 1z m-122 50l-7-5a112 112 0 0 0-7 66 178 178 0 0 0 24-32 162 162 0 0 0 9-19l-5-6a23 23 0 0 0-7-2 23 23 0 0 1-7-2z m-14-127l-4 0-3 0a98 98 0 0 1-19-17q-12-12-15-17a1258 1258 0 0 0-150 142 186 186 0 0 1 30-83 237 237 0 0 0 34-79l-5 0a161 161 0 0 1-18-13 159 159 0 0 0-17-12l-15-9a865 865 0 0 1-93 46 33 33 0 0 1 5-15 158 158 0 0 1 15-20 91 91 0 0 0 14-21l5-10a117 117 0 0 0-37-38 34 34 0 0 0-9-4h0v192c21-14 36-23 43-27q-2 7-11 35a392 392 0 0 0-12 40q-3 12-9 37a162 162 0 0 0-6 41q0 17 0 36a266 266 0 0 1 41 18 55 55 0 0 1 9 6 812 812 0 0 0 120-115 1304 1304 0 0 1 107-113z m718 282l-17 24q-42 60-75 70a57 57 0 0 0 16 20 59 59 0 0 0-4 8q-13 31-21 51a485 485 0 0 0-18 57 270 270 0 0 0-10 60 128 128 0 0 0 10 50 77 77 0 0 0 37 40 153 153 0 0 0 75 17l6-5v-106a115 115 0 0 1-11 25 108 108 0 0 1-38 40 169 169 0 0 1-6-66 362 362 0 0 1 10-62q6-25 20-64a105 105 0 0 1 26 46z m-450-112a46 46 0 0 0-25-40 60 60 0 0 0-41-5 46 46 0 0 0-32 23 58 58 0 0 0-7 22q32 12 39 16t23 16l-7 13a515 515 0 0 0-27 58q-19 45-25 60a119 119 0 0 1-62-10q-38-87 22-191a60 60 0 0 1 55-31 130 130 0 0 1 69 17 86 86 0 0 1 43 47 28 28 0 0 1-25 5z m-114 25a118 118 0 0 0-9 25q-3 13-5 30t-4 25a187 187 0 0 0 25-30 112 112 0 0 0 16-45l-7-5a15 15 0 0 0-17-1z m419 220a190 190 0 0 0 0-28 181 181 0 0 1 0-27 171 171 0 0 1-8-52 119 119 0 0 0-29-25q-60-34-129 86-10 17-27 50a62 62 0 0 0 19 5l23 2a174 174 0 0 0 20 0l12-23a725 725 0 0 1 64-93 65 65 0 0 1 15 35 99 99 0 0 1-6 43 228 228 0 0 1-16 38q-9 14-21 39l-5 9a30 30 0 0 1 8 4 100 100 0 0 0 54 3 59 59 0 0 1 5-7 25 25 0 0 0 5-9 113 113 0 0 0 11-28 172 172 0 0 0 5-22z m-188-194q11-18 17-28l-18-13q-12-8-18-12l-10 17q-10 17-30 46-25 36-33 50a186 186 0 0 1-29-12 91 91 0 0 0-36-11 20 20 0 0 0 6 33l16 8 15 8a154 154 0 0 1-13 28 777 777 0 0 1-48 70q-34 46-49 69a218 218 0 0 0-26 66 83 83 0 0 1 25 9 57 57 0 0 0 46-2 300 300 0 0 1 27-59q10-17 43-67 19-28 32-50 9-17 15-29l5 3a8 8 0 0 1 5 10 40 40 0 0 1-5 12q-3 6 0 7a34 34 0 0 0 20 2 111 111 0 0 0 30-8 69 69 0 0 1 20-6 81 81 0 0 0-29-27 293 293 0 0 1-31-22q5-11 16-31 8-14 17-28t20-33z" horiz-adv-x="1000" />

<glyph glyph-name="icon-menu" unicode="&#xe852;" d="M857 100v-71q0-15-10-25t-26-11h-785q-15 0-25 11t-11 25v71q0 15 11 25t25 11h785q15 0 26-11t10-25z m0 286v-72q0-14-10-25t-26-10h-785q-15 0-25 10t-11 25v72q0 14 11 25t25 10h785q15 0 26-10t10-25z m0 285v-71q0-15-10-25t-26-11h-785q-15 0-25 11t-11 25v71q0 15 11 26t25 10h785q15 0 26-10t10-26z" horiz-adv-x="844" />

<glyph glyph-name="icon-ok-circled" unicode="&#xe853;" d="M717 440q0 16-11 26l-50 50q-11 11-25 11t-26-11l-227-227-126 126q-11 11-25 11t-26-11l-50-50q-10-10-10-26 0-15 10-25l202-202q10-10 25-10t25 10l303 303q11 10 11 25z m140-90q0-117-57-215t-156-156-215-58-216 58-155 156-58 215 58 215 155 156 216 58 215-58 156-156 57-215z" horiz-adv-x="844" />

<glyph glyph-name="icon-ok" unicode="&#xe854;" d="M932 534q0-22-15-38l-480-480q-16-15-38-15t-38 15l-278 278q-15 16-15 38t15 38l76 76q16 16 38 16t38-16l164-165 366 367q16 16 38 16t38-16l76-76q15-16 15-38z" horiz-adv-x="1000" />

<glyph glyph-name="icon-opera" unicode="&#xe855;" d="M426-150c-568 0-568 1000 0 1000s567-1000 0-1000z m0 92c237 0 237 816 0 816s-238-816 0-816z" horiz-adv-x="844" />

<glyph glyph-name="icon-pencil" unicode="&#xe857;" d="M203-7l50 51-131 131-51-51v-60h72v-71h60z m291 518q0 12-12 12-5 0-9-4l-303-302q-4-4-4-10 0-12 13-12 5 0 9 4l303 302q3 4 3 10z m-30 107l232-232-464-465h-232v233z m381-54q0-29-20-50l-93-93-232 233 93 92q20 21 50 21 29 0 51-21l131-131q20-22 20-51z" horiz-adv-x="844" />

<glyph glyph-name="icon-periscope" unicode="&#xe858;" d="M505 813a375 375 0 0 1-369-381c0-220 287-545 369-545 72 0 359 326 359 545 1 208-164 381-359 381z m1-581a222 222 0 0 0-228 213 220 220 0 0 0 47 140v0a87 87 0 1 1 121 80 247 247 0 0 0 60 7 220 220 0 0 0 0-439z" horiz-adv-x="1000" />

<glyph glyph-name="icon-phone-2" unicode="&#xe859;" d="M105 562a79 79 0 0 0 22 61l111 110a37 37 0 0 0 62-10l91-169a47 47 0 0 0-12-56l-41-42a17 17 0 0 1-4-11 328 328 0 0 1 105-156l25-25 29-28q29-27 27-20t33-20q34-27 32-12 16-4 21 2l50 48a50 50 0 0 0 58 9l161-95a41 41 0 0 0 20-30 36 36 0 0 0-10-31l-113-112a80 80 0 0 0-59-22q-113 4-255 97-206 150-300 325-58 122-53 187z" horiz-adv-x="1000" />

<glyph glyph-name="icon-phone" unicode="&#xe85a;" d="M916 109a178 178 0 0 0-7-41 275 275 0 0 0-12-40q-12-30-72-64a228 228 0 0 0-109-30 225 225 0 0 0-32 2 272 272 0 0 0-33 8q-19 5-28 8l-33 12-30 11a554 554 0 0 0-102 50 859 859 0 0 0-157 127 859 859 0 0 0-126 156 511 511 0 0 0-50 102q-2 6-10 30a328 328 0 0 1-13 33 129 129 0 0 0-8 27l-7 34a111 111 0 0 0-2 31 225 225 0 0 0 31 110q32 60 62 71a275 275 0 0 0 40 13 178 178 0 0 0 41 6 30 30 0 0 0 13-2q11-3 32-45 6-11 17-32a346 346 0 0 1 21-36 241 241 0 0 0 18-32 150 150 0 0 0 10-14 207 207 0 0 0 13-22 38 38 0 0 0 4-17 50 50 0 0 0-17-29 225 225 0 0 0-37-32 193 193 0 0 1-36-32 64 64 0 0 1-17-26 41 41 0 0 1 3-14l5-11a100 100 0 0 1 8-15q8-12 8-11a606 606 0 0 1 102-139 615 615 0 0 1 139-103 57 57 0 0 0 10-6 90 90 0 0 1 15-8l11-6a23 23 0 0 1 14-2 43 43 0 0 1 27 16 345 345 0 0 1 31 37 285 285 0 0 0 33 37 54 54 0 0 0 30 17 36 36 0 0 0 15-4 207 207 0 0 0 22-13 150 150 0 0 0 14-10l32-18 37-22q20-11 33-18 41-20 44-30a30 30 0 0 0 3-14z" horiz-adv-x="1000" />

<glyph glyph-name="icon-picasa" unicode="&#xe85b;" d="M285 771q10-12 162-148l-407-371a405 405 0 0 0-12 98 472 472 0 0 0 257 421z m410 10v-285l-337 304a433 433 0 0 0 142 22 484 484 0 0 0 195-41z m72-41a461 461 0 0 0 150-169 468 468 0 0 0 55-221 456 456 0 0 0-26-156h-179z m-704-565q12 12 68 62l104 94v-371a468 468 0 0 0-172 215z m244-257v204h606a478 478 0 0 0-155-167 472 472 0 0 0-215-77h-86a471 471 0 0 0-150 41z" horiz-adv-x="1000" />

<glyph glyph-name="icon-picture" unicode="&#xe85c;" d="M357 529q0-45-31-76t-76-32-76 32-31 76 31 75 76 32 76-32 31-75z m572-215v-250h-786v107l178 179 90-89 285 285z m53 393h-893q-7 0-12-5t-6-13v-678q0-7 6-13t12-5h893q7 0 13 5t5 13v678q0 8-5 13t-13 5z m89-18v-678q0-37-26-63t-63-27h-893q-36 0-63 27t-26 63v678q0 37 26 63t63 27h893q37 0 63-27t26-63z" horiz-adv-x="1063" />

<glyph glyph-name="icon-pinterest" unicode="&#xe85d;" d="M21 350a471 471 0 0 0 144 341 466 466 0 0 0 335 138 467 467 0 0 0 343-143 479 479 0 0 0 136-336 469 469 0 0 0-143-339 470 470 0 0 0-471-120q14 21 27 47a934 934 0 0 1 37 120q6 25 17 66a119 119 0 0 1 45-41 196 196 0 0 1 178 8 293 293 0 0 1 134 173 350 350 0 0 1-8 229 275 275 0 0 1-151 153 415 415 0 0 1-266-8 297 297 0 0 1-178-164 372 372 0 0 1-16-85 393 393 0 0 1 3-83 165 165 0 0 1 28-72 144 144 0 0 1 60-50 14 14 0 0 1 14 0q8 4 16 30a92 92 0 0 1 5 37l-7 12a183 183 0 0 0-25 134 241 241 0 0 0 57 119 262 262 0 0 0 162 67 212 212 0 0 0 158-50 200 200 0 0 0 45-99 296 296 0 0 0 0-111 359 359 0 0 0-36-100q-47-73-111-75a85 85 0 0 0-61 29 63 63 0 0 0-13 63 640 640 0 0 0 21 80 423 423 0 0 1 21 90q-6 71-66 73a88 88 0 0 1-69-42 180 180 0 0 1-25-84 212 212 0 0 1 17-75q-20-84-31-135-4-13-21-80a504 504 0 0 1-19-103v-53a496 496 0 0 0-209 180 462 462 0 0 0-77 259z" horiz-adv-x="1000" />

<glyph glyph-name="icon-plus" unicode="&#xe85e;" d="M786 439v-107q0-22-16-38t-38-15h-232v-233q0-22-16-37t-38-16h-107q-22 0-38 16t-15 37v233h-232q-23 0-38 15t-16 38v107q0 23 16 38t38 16h232v232q0 22 15 38t38 16h107q23 0 38-16t16-38v-232h232q22 0 38-16t16-38z" horiz-adv-x="781" />

<glyph glyph-name="icon-pocket" unicode="&#xe85f;" d="M132 460q-4 140 8 175a59 59 0 0 0 6 11 27 27 0 0 0 9 8 41 41 0 0 1 9 6 35 35 0 0 0 11 7 95 95 0 0 1 11 5q88 0 250 1l214 2h97a135 135 0 0 0 36-2 93 93 0 0 1 29-4q29-2 22-6a55 55 0 0 0 17-16 75 75 0 0 0 11-19 123 123 0 0 0 5-25 161 161 0 0 0 2-28q0-10 0-32t0-33a1184 1184 0 0 0-15-212 317 317 0 0 0-62-139 352 352 0 0 0-108-91 330 330 0 0 0-125-40 426 426 0 0 0-130 7 369 369 0 0 0-120 48 395 395 0 0 0-98 87 332 332 0 0 0-63 117 1013 1013 0 0 0-16 173z m150 2q-17-19 10-58a546 546 0 0 1 68-81l25-25q25-25 35-33t30-23a130 130 0 0 1 37-19 54 54 0 0 1 14-2l13 0a31 31 0 0 1 13 5 33 33 0 0 0 10 4 23 23 0 0 1 11 8q6 7 7 6s4 2 8 8l2 2q6 5 39 36t56 52a406 406 0 0 1 44 52 102 102 0 0 1 23 48 75 75 0 0 1-25 37 39 39 0 0 1-33 5 115 115 0 0 1-37-17 320 320 0 0 1-38-31q-19-19-35-36t-32-33a200 200 0 0 0-25-22 295 295 0 0 0-47 39q-30 29-52 54a317 317 0 0 1-48 41q-25 17-36 9a292 292 0 0 1-36-26z" horiz-adv-x="1000" />

<glyph glyph-name="icon-quote-left" unicode="&#xe860;" d="M429 314v-214q0-45-32-76t-76-31h-214q-44 0-76 31t-31 76v393q0 58 23 111t61 91 91 61 111 23h35q15 0 26-11t10-25v-72q0-14-10-25t-26-10h-35q-59 0-101-42t-42-101v-18q0-22 16-38t37-16h125q45 0 76-31t32-76z m500 0v-214q0-45-32-76t-76-31h-214q-44 0-76 31t-31 76v393q0 58 23 111t61 91 91 61 111 23h35q15 0 26-11t10-25v-72q0-14-10-25t-26-10h-35q-59 0-101-42t-42-101v-18q0-22 15-38t38-16h125q45 0 76-31t32-76z" horiz-adv-x="938" />

<glyph glyph-name="icon-quote-right" unicode="&#xe861;" d="M429 671v-392q0-58-23-111t-61-91-91-62-111-22h-36q-14 0-25 10t-11 26v71q0 15 11 25t25 11h36q59 0 101 42t42 101v17q0 23-16 38t-38 16h-125q-44 0-76 31t-31 76v214q0 45 31 76t76 32h214q45 0 76-32t32-76z m500 0v-392q0-58-23-111t-61-91-91-62-111-22h-36q-14 0-25 10t-11 26v71q0 15 11 25t25 11h36q59 0 101 42t42 101v17q0 23-16 38t-38 16h-125q-44 0-76 31t-31 76v214q0 45 31 76t76 32h214q45 0 76-32t32-76z" horiz-adv-x="938" />

<glyph glyph-name="icon-retweet" unicode="&#xe862;" d="M643 107a14 14 0 0 0-15-14h-428a21 21 0 0 0-6 0 8 8 0 0 0-4 3l-2 4a14 14 0 0 0-2 6q0 4 0 4v269h-86a25 25 0 0 0-20 8 33 33 0 0 0-9 20 29 29 0 0 0 7 18l143 171a28 28 0 0 0 22 10 31 31 0 0 0 22-10l143-171a27 27 0 0 0 7-18 25 25 0 0 0-9-20 33 33 0 0 0-20-9h-86v-171h257a14 14 0 0 0 12-5l71-87a16 16 0 0 0 3-8z m285 186a27 27 0 0 0-6-19l-143-171a28 28 0 0 0-44 0l-143 172a27 27 0 0 0-6 19 29 29 0 0 0 8 20 27 27 0 0 0 21 8h85v171h-257a13 13 0 0 0-11 5l-72 86a14 14 0 0 0-3 9 13 13 0 0 0 4 9 17 17 0 0 0 11 5h428a18 18 0 0 0 6 0 8 8 0 0 0 4-3l2-4a25 25 0 0 0 2-5 24 24 0 0 0 0-6v-267h86a28 28 0 0 0 20-9 25 25 0 0 0 8-20z" horiz-adv-x="1000" />

<glyph glyph-name="icon-right-dir" unicode="&#xe863;" d="M321 350q0-14-10-25l-250-250q-11-11-25-11t-25 11-11 25v500q0 15 11 25t25 11 25-11l250-250q10-10 10-25z" horiz-adv-x="344" />

<glyph glyph-name="icon-right-open" unicode="&#xe864;" d="M618 361l-414-415q-11-10-25-10t-26 10l-92 93q-11 11-11 25t11 25l296 297-296 296q-11 11-11 25t11 25l92 93q11 10 26 10t25-10l414-414q10-11 10-25t-10-25z" horiz-adv-x="719" />

<glyph glyph-name="icon-rocket" unicode="&#xe865;" d="M817 614a52 52 0 1 1-88-36 52 52 0 0 1 88 36z m119 154a591 591 0 0 0-41-230 620 620 0 0 0-135-192q-43-42-104-94l-11-202a20 20 0 0 0-8-14l-205-120a19 19 0 0 0-21 3l-34 34a15 15 0 0 0-4 17l45 148-150 150-148-45a8 8 0 0 0-5 0 16 16 0 0 0-11 2l-34 36a16 16 0 0 0-3 21l120 204a20 20 0 0 0 13 9l202 10q52 62 94 105a630 630 0 0 0 191 137 598 598 0 0 0 230 39 17 17 0 0 0 13-6 17 17 0 0 0 6-12z" horiz-adv-x="1000" />

<glyph glyph-name="icon-rss" unicode="&#xe866;" d="M34 817a899 899 0 0 0 659-275 899 899 0 0 0 275-660h-146a755 755 0 0 1-231 556 762 762 0 0 1-557 231z m0-292a620 620 0 0 0 455-188 617 617 0 0 0 188-453h-145a477 477 0 0 1-146 350 480 480 0 0 1-352 146z m140-363a137 137 0 0 0 98-41 133 133 0 0 0 42-100 131 131 0 0 0-42-96 137 137 0 0 0-98-41 137 137 0 0 0-99 41 131 131 0 0 0-42 97 133 133 0 0 0 42 100 137 137 0 0 0 99 39z" horiz-adv-x="1000" />

<glyph glyph-name="icon-search-med" unicode="&#xe867;" d="M643 386q0 103-74 176t-176 74-177-74-73-176 73-177 177-73 176 73 74 177z m286-465q0-29-22-50t-50-21q-30 0-50 21l-191 191q-100-69-223-69-80 0-153 31t-125 84-84 125-31 153 31 152 84 126 125 84 153 31 152-31 126-84 84-126 31-152q0-123-69-223l191-191q21-21 21-51z" horiz-adv-x="938" />

<glyph glyph-name="icon-search-thin" unicode="&#xe868;" d="M772 78q30-34 6-62l-46-46q-36-32-68 0l-190 190q-74-42-156-42-128 0-223 95t-95 223 90 219 218 91 224-95 96-223q0-88-46-162z m-678 358q0-88 68-156t156-68 151 63 63 153q0 88-68 155t-156 67-151-63-63-151z" horiz-adv-x="781" />

<glyph glyph-name="icon-search" unicode="&#xe869;" d="M0 8l186 186h2q-67 105-67 228 0 178 125 303t303 125 303-125 125-303-125-302-303-125q-106 0-197 48l-194-193z m311 415q0-98 70-168t168-69 168 69 70 168-70 168-168 70-168-70-70-168z" horiz-adv-x="969" />

<glyph glyph-name="icon-slack" unicode="&#xe86a;" d="M832 377a67 67 0 0 0 50-20 69 69 0 0 0 21-48 62 62 0 0 0-45-63l-83-29 25-80a71 71 0 0 0 4-23 68 68 0 0 0-21-50 67 67 0 0 0-49-21 72 72 0 0 0-41 13 65 65 0 0 0-25 35l-25 80-150-50 27-79a85 85 0 0 0 3-23 69 69 0 0 0-20-50 66 66 0 0 0-50-21 70 70 0 0 0-41 13 66 66 0 0 0-25 35l-28 79-73-25a90 90 0 0 0-25-4 69 69 0 0 0-50 19 69 69 0 0 0-6 90 77 77 0 0 0 35 25l75 25-50 151-75-25a69 69 0 0 0-24-4 68 68 0 0 0-68 69 68 68 0 0 0 13 40 71 71 0 0 0 35 25l75 25-25 75a85 85 0 0 0-4 24 69 69 0 0 0 20 50 66 66 0 0 0 50 20 69 69 0 0 0 42-13 65 65 0 0 0 25-35l25-77 150 50-25 77a75 75 0 0 0-4 22 69 69 0 0 0 20 50 66 66 0 0 0 50 21 72 72 0 0 0 42-13 65 65 0 0 0 25-35l25-78 78 30a79 79 0 0 0 21 2 71 71 0 0 0 50-19 63 63 0 0 0 6-87 70 70 0 0 0-36-25l-75-25 50-154 79 29a75 75 0 0 0 22 2z m-383-127l150 50-50 152-150-52z" horiz-adv-x="1000" />

<glyph glyph-name="icon-snapchat" unicode="&#xe86b;" d="M972 120c-133 22-193 158-196 163 0 0 0 0 0 2a47 47 0 0 0-4 36c8 17 35 26 55 32 4 1 10 3 13 5 33 13 50 29 50 48a40 40 0 0 1-29 34h0a54 54 0 0 1-21 4 50 50 0 0 1-18-4 106 106 0 0 0-42-12 50 50 0 0 0-17 4c0 7 0 13 2 21v2c4 66 10 149-12 198a261 261 0 0 1-242 156h-21a258 258 0 0 1-240-156c-22-49-16-131-13-197a209 209 0 0 0 2-25 44 44 0 0 0-19-4 106 106 0 0 0-45 13 43 43 0 0 1-15 3 48 48 0 0 1-47-32c-3-15 3-35 49-52a107 107 0 0 1 13-6c19-5 47-15 55-32a40 40 0 0 0-5-36v-2c-3-5-62-141-195-163a20 20 0 0 1-17-21 33 33 0 0 1 2-9c10-25 52-41 128-53a113 113 0 0 0 8-23 208 208 0 0 1 5-23 22 22 0 0 1 25-17 103 103 0 0 1 19 2 236 236 0 0 0 52 7 261 261 0 0 0 37-4 175 175 0 0 0 70-36 220 220 0 0 1 134-52h12a215 215 0 0 1 134 52 184 184 0 0 0 71 36 262 262 0 0 0 36 4 269 269 0 0 0 54-6 119 119 0 0 1 22-2h0a21 21 0 0 1 23 16c2 8 4 16 6 23a189 189 0 0 0 6 23c77 12 119 30 129 53a27 27 0 0 1 2 9 22 22 0 0 1-16 21z" horiz-adv-x="1000" />

<glyph glyph-name="icon-spin1" unicode="&#xe86c;" d="M496 850c-176 0-331-90-421-226-18-27-33-55-46-85-12-29-21-60-28-92 0 0 0-1 0-1v0 0c0-1 0-2 0-2 0-7 5-12 11-12h101c5 0 10 4 11 9 29 113 109 206 214 253 20 10 41 17 63 23 31 7 62 11 95 11v0 0 0c25 0 50-2 74-7 5-1 10-2 14-3 6-1 10-3 14-4v0c5-1 11 1 13 6l51 87c0 0 1 1 1 2 2 6-1 13-7 15-22 7-43 13-65 17-5 1-9 1-13 2-27 5-54 7-82 7v0 0z m327-114c-5 0-9-2-11-6l-50-87c-3-4-2-10 2-14 29-29 54-63 73-101 4-7 7-14 11-22 19-46 30-97 30-151v0 0c0-77-22-149-62-209-7-11-15-23-24-33-9-11-18-21-28-31v0 0 0c-4-4-5-10-2-14l50-87c0-1 1-2 2-3 4-5 11-5 16-1 58 52 104 117 134 190 6 15 11 29 15 44 14 46 21 94 21 144 0 108-34 209-92 291-11 16-23 31-37 46-13 14-26 28-41 41v0c-1 1-1 1-2 1-2 1-4 2-5 2z m-811-468v0c-1 0-2 0-3 0-6-1-10-8-9-14 34-166 149-302 302-366 30-12 61-21 93-28 32-6 66-10 100-10v0 0c40 0 79 5 117 14 7 1 14 3 22 5 6 2 13 5 20 7 1 0 2 1 3 1 6 3 8 10 4 16l-50 87c-3 5-8 7-13 6-14-4-28-7-42-9-3-1-6-1-8-2-18-2-35-3-53-3v0 0c-128 0-242 63-311 160-1 0-1 0-1 0-13 19-25 40-35 61s-18 43-24 65c-1 6-6 10-11 10h-101z" horiz-adv-x="1000" />

<glyph glyph-name="icon-spin2" unicode="&#xe86d;" d="M46 144v0c0 0-1 0-1 0-8 18-15 37-21 55-6 19-11 38-15 58-19 99-8 203 35 298 3 6 10 8 15 5 1 0 2 0 2-1v0l80-59c5-3 6-9 4-14-5-12-9-25-12-37-4-13-7-26-9-40-11-67-3-137 23-201 2-5 0-10-4-13v0l-80-56c-5-4-12-2-16 3-1 0-1 1-1 2v0z m120 574v0c0 1 0 1 0 1 15 13 30 25 46 37 16 11 33 22 51 31 89 50 192 72 297 60 6-1 10-6 10-13 0-1-1-1-1-2v0l-31-94c-2-5-8-8-13-7-13 0-27 0-40 0-14-1-27-2-40-4-68-11-133-40-186-84-4-3-10-3-14 0v0l-79 58c-5 3-6 11-2 16 0 0 1 1 2 1v0z m588 65v0c0 0 1 0 1 0 17-10 34-21 50-32 16-12 31-25 46-38 74-69 127-160 148-262 2-6-2-12-9-13-1 0-1 0-2 0v0l-100 1c-5 0-10 4-11 9-3 13-8 26-12 38-5 12-10 25-17 36-31 61-78 113-137 150-5 3-6 8-5 13v0l31 92c2 6 9 9 15 7 1 0 2-1 2-1v0z m244-535v0c0 0 0 0 0 0-4-20-9-39-15-57-7-19-14-37-22-55-44-92-114-170-205-221-6-3-13-1-16 4 0 1-1 2-1 2v0l-30 94c-2 6 1 12 6 14 11 7 22 15 32 23 11 9 21 18 30 27 49 48 84 109 101 176 2 5 6 8 11 8v0l98-1c6 0 11-5 11-11 0-1 0-2 0-3v0z m-438-395v0c0 0 0 0 0 0-20-2-40-3-60-3s-40 1-59 4c-102 12-198 54-276 125-5 4-5 11 0 16 0 0 1 1 1 1v0l81 58c5 3 12 2 16-2 10-8 20-16 32-23 11-7 22-14 34-20 62-31 131-45 200-41 6 0 10-3 12-8v0l29-92c2-6-1-12-7-14-1-1-2-1-3-1v0z" horiz-adv-x="1000" />

<glyph glyph-name="icon-spin3" unicode="&#xe86e;" d="M494 850c-266 0-483-210-494-472-1-19 13-20 13-20h84c16 0 19 10 19 18 10 199 176 358 378 358 107 0 205-45 273-118l-58-57c-11-12-11-27 5-31l247-50c21-5 46 11 37 44l-58 227c-2 9-16 22-29 13l-65-60c-89 91-214 148-352 148z m409-508c-16 0-19-10-19-18-10-199-176-358-377-358-108 0-205 45-274 118l59 57c10 12 10 27-5 31l-248 50c-21 5-46-11-37-44l58-227c2-9 16-22 30-13l64 60c89-91 214-148 353-148 265 0 482 210 493 473 1 18-13 19-13 19h-84z" horiz-adv-x="1000" />

<glyph glyph-name="icon-spin4" unicode="&#xe86f;" d="M498 850c-114 0-228-39-320-116v0c173 140 428 130 588-31 134-134 164-332 89-495-10-29-5-50 12-68 21-20 61-23 84 0 3 3 12 15 15 24 71 180 33 393-112 539-99 98-228 147-356 147z m-409-274c-14 0-29-5-39-16-3-3-13-15-15-24-71-180-34-393 112-539 185-185 479-195 676-31v0c-173-140-428-130-589 31-134 134-163 333-89 495 11 29 6 50-12 68-11 11-27 17-44 16z" horiz-adv-x="1000" />

<glyph glyph-name="icon-spin5" unicode="&#xe870;" d="M462 850c-6 0-11-5-11-11v-183c0-6 5-11 11-11h69c1 0 1 0 1 0 7 0 12 5 12 11v183c0 6-5 11-12 11h-69c0 0 0 0-1 0z m250-47c-4 1-8-2-10-5l-91-158c-4-6-2-13 4-16l60-34c0-1 0-1 0-1 6-3 13-1 16 4l91 158c3 6 2 13-4 16l-61 35c-1 1-3 1-5 1z m-428-2c-2 0-4-1-6-2l-61-35c-5-3-7-10-4-16l91-157c0 0 0 0 0 0 3-6 10-8 16-5l61 35c5 4 7 11 4 16l-91 157c0 1 0 1 0 1-2 4-6 6-10 6z m620-163c-2 0-4 0-6-1l-157-91c0 0 0 0 0 0-6-3-8-10-5-16l35-61c4-5 11-7 16-4l157 91c1 0 1 0 1 0 6 3 7 11 4 16l-35 61c-2 4-6 6-10 5z m-810-4c-5 0-9-2-11-6l-35-61c-3-5-1-12 4-15l158-91c6-4 13-2 16 4l35 60c0 0 0 0 0 0 3 6 1 13-4 16l-158 91c-2 1-4 2-5 2z m712-235v0c-6 0-11-5-11-11v-69c0-1 0-1 0-1 0-7 5-12 11-12h183c6 0 11 5 11 12v69c0 0 0 0 0 1 0 6-5 11-11 11h-183z m-794-5v0c-7 0-12-5-12-12v-69c0 0 0 0 0-1 0-6 5-11 12-11h182c6 0 11 5 11 11v69c0 1 0 1 0 1 0 7-5 12-11 12h-182z m772-153c-4 0-8-2-10-6l-34-60c-1 0-1 0-1 0-3-6-1-13 4-16l158-91c6-3 13-1 16 4l35 61c3 5 1 12-4 15l-158 92c-2 1-4 1-6 1z m-566-5c-1 0-3 0-5-1l-157-91c0 0-1 0-1 0-5-3-7-10-4-16l35-61c3-5 10-7 16-4l157 91c0 0 0 0 0 0 6 3 8 10 5 16l-35 61c-3 3-7 6-11 5z m468-121c-2 0-4 0-6-1l-61-35c-5-4-7-11-4-16l91-157c0-1 0-1 0-1 3-6 11-7 16-4l61 35c5 3 7 10 4 16l-91 157c0 0 0 0 0 0-2 4-6 6-10 6z m-367-2c-4 0-8-2-10-6l-91-158c-3-6-1-13 4-16l61-35c5-3 12-1 15 4l92 158c3 6 1 13-5 16l-60 35c0 0 0 0 0 0-2 1-4 1-6 2z m149-58c-7 0-12-5-12-11v-183c0-6 5-11 12-11h69c0 0 0 0 1 0 6 0 11 5 11 11v183c0 6-5 11-11 11h-69c-1 0-1 0-1 0z" horiz-adv-x="1000" />

<glyph glyph-name="icon-spin6" unicode="&#xe871;" d="M855 9c-189-190-520-172-705 13-190 190-200 494-28 695 11 13 21 26 35 34 36 23 85 18 117-13 30-31 35-76 16-112-5-9-9-15-16-22-140-151-145-379-8-516 153-153 407-121 542 34 106 122 142 297 77 451-83 198-305 291-510 222v1c236 82 492-24 588-252 71-167 37-355-72-493-11-15-23-29-36-42z" horiz-adv-x="1000" />

<glyph glyph-name="icon-stack-overflow" unicode="&#xe872;" d="M613 96v-75l-356 0v75z m121 175v-371h-570l-17 0h0v370h60v-312h467v312z m-466-46l353-32-6-75-354 32z m32 160l345-93-20-73-343 92z m82 175l307-181-39-65-305 181z m181 167l200-294-60-43-200 294z m229 75l61-350-75-13-61 350z" horiz-adv-x="1000" />

<glyph glyph-name="icon-stackexchange" unicode="&#xe873;" d="M825 230v-35a106 106 0 0 0-31-75 95 95 0 0 0-72-31h-30l-137-142v141h-277a97 97 0 0 0-73 31 105 105 0 0 0-30 75v36z m0 171v-134h-650v134z m0 173v-135h-650v135z m0 73v-36h-650v36a104 104 0 0 0 30 75 97 97 0 0 0 73 31h444a97 97 0 0 0 72-31 108 108 0 0 0 31-75z" horiz-adv-x="1000" />

<glyph glyph-name="icon-star-empty" unicode="&#xe874;" d="M634 290l171 165-235 35-106 213-105-213-236-35 171-165-41-235 211 111 211-111z m295 199q0-12-15-27l-203-197 48-279q1-4 1-12 0-28-23-28-10 0-22 7l-251 132-250-132q-13-7-23-7-11 0-17 9t-6 19q0 4 1 12l48 279-203 197q-14 15-14 27 0 21 31 26l280 40 126 254q11 23 27 23t28-23l125-254 280-40q32-5 32-26z" horiz-adv-x="938" />

<glyph glyph-name="icon-star-filled" unicode="&#xe875;" d="M985 455a43 43 0 0 0-15-30l-212-204 50-292a56 56 0 0 0 0-12 32 32 0 0 0-7-20 25 25 0 0 0-17-10 46 46 0 0 0-23 8l-261 138-261-138a52 52 0 0 0-25-8 20 20 0 0 0-18 10 35 35 0 0 0-6 20 111 111 0 0 0 0 12l50 292-210 204a44 44 0 0 0-15 30q0 22 32 27l293 42 131 265q12 25 29 25t29-25l130-266 293-41q33-6 33-27z" horiz-adv-x="1000" />

<glyph glyph-name="icon-star-half-alt" unicode="&#xe876;" d="M662 316l143 139-198 29-37 6-17 34-89 179v-537l33-17 178-94-34 198-7 37z m252 146l-202-197 47-279q3-19-3-29t-19-11q-9 0-22 7l-251 132-250-132q-13-7-23-7-12 0-19 11t-3 29l48 279-203 197q-18 18-13 33t30 20l280 40 126 254q11 23 27 23t28-23l125-254 280-40q25-4 30-20t-13-33z" horiz-adv-x="938" />

<glyph glyph-name="icon-star-half" unicode="&#xe877;" d="M464 832v-747l-250-132q-13-7-23-7-11 0-17 9t-6 19q0 4 1 12l48 279-203 197q-14 15-14 27 0 21 31 26l280 40 126 254q11 23 27 23z" horiz-adv-x="500" />

<glyph glyph-name="icon-star" unicode="&#xe878;" d="M929 489q0-12-15-27l-203-197 48-279q1-4 1-12 0-11-6-19t-17-9q-10 0-22 7l-251 132-250-132q-13-7-23-7-11 0-17 9t-6 19q0 4 1 12l48 279-203 197q-14 15-14 27 0 21 31 26l280 40 126 254q11 23 27 23t28-23l125-254 280-40q32-5 32-26z" horiz-adv-x="938" />

<glyph glyph-name="icon-stumbleupon" unicode="&#xe879;" d="M546 433v52a44 44 0 0 1-13 32 41 41 0 0 1-33 13 50 50 0 0 1-32-13 41 41 0 0 1-13-32v-273a181 181 0 0 0-55-134 187 187 0 0 0-136-55 184 184 0 0 0-136 56 184 184 0 0 0-56 135v119h146v-116a45 45 0 0 1 14-33 41 41 0 0 1 32-13 50 50 0 0 1 32 13 42 42 0 0 1 13 33v276a175 175 0 0 0 56 131 184 184 0 0 0 135 53 186 186 0 0 0 135-54 179 179 0 0 0 56-131v-61l-87-25z m236-100h147v-120a191 191 0 0 0-192-191 186 186 0 0 0-135 55 182 182 0 0 0-56 135v121l59-28 87 25v-120a45 45 0 0 1 13-32 40 40 0 0 1 32-13 51 51 0 0 1 32 13 38 38 0 0 1 13 32z" horiz-adv-x="1000" />

<glyph glyph-name="icon-tag" unicode="&#xe87a;" d="M250 600q0 30-21 51t-50 20-51-20-21-51 21-50 51-21 50 21 21 50z m595-321q0-30-20-51l-274-274q-22-21-51-21-30 0-50 21l-399 399q-21 21-36 57t-15 65v232q0 29 21 50t50 22h233q29 0 65-15t57-36l399-399q20-21 20-50z" horiz-adv-x="844" />

<glyph glyph-name="icon-tags" unicode="&#xe87b;" d="M250 600q0 30-21 51t-50 20-51-20-21-51 21-50 51-21 50 21 21 50z m595-321q0-30-20-51l-274-274q-22-21-51-21-30 0-50 21l-399 399q-21 21-36 57t-15 65v232q0 29 21 50t50 22h233q29 0 65-15t57-36l399-399q20-21 20-50z m215 0q0-30-21-51l-274-274q-22-21-51-21-20 0-33 8t-29 25l262 262q21 21 21 51 0 29-21 50l-399 399q-21 21-57 36t-65 15h125q29 0 65-15t57-36l399-399q21-21 21-50z" horiz-adv-x="1063" />

<glyph glyph-name="icon-toggle-off" unicode="&#xe87c;" d="M643 350q0 58-23 111t-61 91-91 61-111 23-111-23-91-61-61-91-23-111 23-111 61-91 91-61 111-23 111 23 91 61 61 91 23 111z m428 0q0 58-22 111t-61 91-92 61-110 23h-216q67-51 106-125t38-161-38-161-106-125h216q58 0 110 23t92 61 61 91 22 111z m72 0q0-73-29-139t-76-113-114-77-138-28h-429q-72 0-138 28t-114 77-76 113-29 139 29 139 76 114 114 76 138 28h429q72 0 138-28t114-76 76-114 29-139z" horiz-adv-x="1156" />

<glyph glyph-name="icon-toggle-on" unicode="&#xe87d;" d="M0 350q0 73 29 139t76 114 114 76 138 28h429q72 0 138-28t114-76 76-114 29-139-29-139-76-113-114-77-138-28h-429q-72 0-138 28t-114 77-76 113-29 139z m786-286q58 0 110 23t92 61 61 91 22 111-22 111-61 91-92 61-110 23-111-23-91-61-61-91-23-111 23-111 61-91 91-61 111-23z" horiz-adv-x="1156" />

<glyph glyph-name="icon-trash-empty" unicode="&#xe87e;" d="M286 439v-321q0-8-5-13t-13-5h-36q-8 0-13 5t-5 13v321q0 8 5 13t13 5h36q8 0 13-5t5-13z m143 0v-321q0-8-5-13t-13-5h-36q-8 0-13 5t-5 13v321q0 8 5 13t13 5h36q8 0 13-5t5-13z m142 0v-321q0-8-5-13t-12-5h-36q-8 0-13 5t-5 13v321q0 8 5 13t13 5h36q7 0 12-5t5-13z m72-404v529h-500v-529q0-12 4-22t8-15 6-5h464q2 0 6 5t8 15 4 22z m-375 601h250l-27 65q-4 5-9 6h-177q-6-1-10-6z m518-18v-36q0-8-5-13t-13-5h-54v-529q0-46-26-80t-63-34h-464q-37 0-63 33t-27 79v531h-53q-8 0-13 5t-5 13v36q0 8 5 13t13 5h172l39 93q9 21 31 35t44 15h178q22 0 44-15t30-35l39-93h173q8 0 13-5t5-13z" horiz-adv-x="781" />

<glyph glyph-name="icon-trash" unicode="&#xe87f;" d="M286 82v393q0 8-5 13t-13 5h-36q-8 0-13-5t-5-13v-393q0-8 5-13t13-5h36q8 0 13 5t5 13z m143 0v393q0 8-5 13t-13 5h-36q-8 0-13-5t-5-13v-393q0-8 5-13t13-5h36q8 0 13 5t5 13z m142 0v393q0 8-5 13t-12 5h-36q-8 0-13-5t-5-13v-393q0-8 5-13t13-5h36q7 0 12 5t5 13z m-303 554h250l-27 65q-4 5-9 6h-177q-6-1-10-6z m518-18v-36q0-8-5-13t-13-5h-54v-529q0-46-26-80t-63-34h-464q-37 0-63 33t-27 79v531h-53q-8 0-13 5t-5 13v36q0 8 5 13t13 5h172l39 93q9 21 31 35t44 15h178q22 0 44-15t30-35l39-93h173q8 0 13-5t5-13z" horiz-adv-x="781" />

<glyph glyph-name="icon-trello" unicode="&#xe880;" d="M466 108v553a17 17 0 0 1-18 17h-259a17 17 0 0 1-18-17v-553a17 17 0 0 1 18-17h259a17 17 0 0 1 18 17z m363 207v346a17 17 0 0 1-18 17h-259a17 17 0 0 1-18-17v-346a17 17 0 0 1 18-17h259a17 17 0 0 1 18 17z m86 416v-762a35 35 0 0 0-10-25 33 33 0 0 0-25-10h-760a31 31 0 0 0-25 10 39 39 0 0 0-11 25v762a33 33 0 0 0 11 25 33 33 0 0 0 25 10h760a35 35 0 0 0 25-10 30 30 0 0 0 10-25z" horiz-adv-x="1000" />

<glyph glyph-name="icon-tsu" unicode="&#xe881;" d="M1002 36c0-4 0-6 0-6h-123l0 36s0 0-2 0a168 168 0 0 0-43-31 150 150 0 0 0-50-15 228 228 0 0 0-50-3 186 186 0 0 0-39 8 100 100 0 0 0-59 53 56 56 0 0 0-6 13 75 75 0 0 1-5 13c-2 0-2-2-2-2a148 148 0 0 0-56-57 218 218 0 0 0-64-25 285 285 0 0 0-41-4 148 148 0 0 0-41 0 275 275 0 0 0-67 13 182 182 0 0 0-29 17 108 108 0 0 0-25 21c-2 2-4 4-7 9l-6 10 0 0a4 4 0 0 1-2-4v-42c0-3 0-4 0-5a4 4 0 0 0-3 0c-16-4-33-7-50-9s-39-2-60 0a165 165 0 0 0-47 10 80 80 0 0 0-41 39 148 148 0 0 0-9 21c0 8-4 14-5 23a222 222 0 0 0-2 50v292c0 3 0 5-2 5s-2 0-3 0h-63c-2 0-3 2-2 3v96c0 2 0 4 0 4h71a12 12 0 0 1 0 5v106a6 6 0 0 0 0 3h66c21 0 42-2 64-3 2 0 2 0 3 0v-110c0-2 0-3 0-4a12 12 0 0 1 5-2h77a2 2 0 0 0 2-2v-64c3 0 3 0 3 2a109 109 0 0 0 25 32 163 163 0 0 0 25 19 138 138 0 0 0 29 13 255 255 0 0 0 48 11 227 227 0 0 0 62 3 210 210 0 0 0 68-14 125 125 0 0 0 50-35c5-5 10-11 14-18a5 5 0 0 0 2-3c0 2 2 2 0 3v55h130v-382a112 112 0 0 1 4-31 55 55 0 0 1 5-13 78 78 0 0 1 8-9 50 50 0 0 1 16-8 102 102 0 0 1 54 4 63 63 0 0 1 38 46 67 67 0 0 1 3 14v375c0 3 0 5 0 5h130a3 3 0 0 0 0-2v-530z m-484 153a53 53 0 0 1-18 32 119 119 0 0 1-26 14c-31 12-62 22-94 34a310 310 0 0 0-53 26 150 150 0 0 0-48 64 214 214 0 0 0-10 60 150 150 0 0 0 4 47h-67c-3 0-4 0-4 0a12 12 0 0 1 0-5v-300a134 134 0 0 1 2-17 84 84 0 0 1 6-9 20 20 0 0 1 9-4c0-2 0-2 3-2a213 213 0 0 1 43 2q4 0 3 3a140 140 0 0 0-5 40v42h117v-31a117 117 0 0 1 6-37 45 45 0 0 1 36-38 251 251 0 0 1 27-2 95 95 0 0 1 37 6 47 47 0 0 1 31 36 78 78 0 0 1 1 39z m97 105v96c0 2 0 3 0 4a7 7 0 0 1-5 2h-97c-2 0-2 0-3 0v37a62 62 0 0 1-5 25 42 42 0 0 1-32 28 86 86 0 0 1-47-2 44 44 0 0 1-30-34 70 70 0 0 1-2-28 32 32 0 0 1 14-25c2-3 7-6 12-10 10-5 18-8 28-11 22-9 44-17 67-25a400 400 0 0 0 50-21 144 144 0 0 0 41-30 39 39 0 0 1 9-9s-1 1 0 4z m388 308c0-2 0-2 0-2h-389s0 0 0 4v78c0 2 0 2 2 2h386s0 0 0-4z" horiz-adv-x="1000" />

<glyph glyph-name="icon-tumblr" unicode="&#xe882;" d="M783-62a441 441 0 0 0-108-41 424 424 0 0 0-103-12 375 375 0 0 0-111 17 248 248 0 0 0-83 46 150 150 0 0 0-46 65 245 245 0 0 0-14 97v325h-100v131a280 280 0 0 1 93 50 250 250 0 0 1 62 82 357 357 0 0 1 30 117h131v-234h219v-146h-219v-238a364 364 0 0 1 8-103 71 71 0 0 1 33-37 115 115 0 0 1 69-20 253 253 0 0 1 139 46z" horiz-adv-x="1000" />

<glyph glyph-name="icon-twitter" unicode="&#xe883;" d="M968 640a414 414 0 0 0-96-100v-25a561 561 0 0 0-61-254 532 532 0 0 0-189-206 524 524 0 0 0-295-85 532 532 0 0 0-294 86 373 373 0 0 1 46-2 375 375 0 0 1 238 82 192 192 0 0 0-112 39 185 185 0 0 0-67 96 103 103 0 0 1 35-4 209 209 0 0 1 50 6 192 192 0 0 0-153 189v2a210 210 0 0 1 86-25 185 185 0 0 0-85 161 192 192 0 0 0 27 95 515 515 0 0 1 396-200 135 135 0 0 0-6 42 184 184 0 0 0 56 136 187 187 0 0 0 137 56 181 181 0 0 0 138-59 444 444 0 0 1 122 45 184 184 0 0 0-83-106 440 440 0 0 1 110 31z" horiz-adv-x="1000" />

<glyph glyph-name="icon-up-dir" unicode="&#xe884;" d="M571 171q0-14-10-25t-25-10h-500q-15 0-25 10t-11 25 11 26l250 250q10 10 25 10t25-10l250-250q10-11 10-26z" horiz-adv-x="563" />

<glyph glyph-name="icon-up-open" unicode="&#xe885;" d="M939 107l-92-92q-11-10-26-10t-25 10l-296 297-296-297q-11-10-25-10t-26 10l-92 92q-11 11-11 26t11 25l414 414q11 10 25 10t25-10l414-414q11-11 11-25t-11-26z" horiz-adv-x="1000" />

<glyph glyph-name="icon-upload-cloud" unicode="&#xe886;" d="M714 368q0 8-5 13l-196 196q-5 5-13 5t-13-5l-196-196q-5-6-5-13 0-8 5-13t13-5h125v-196q0-8 5-13t12-5h108q7 0 12 5t5 13v196h125q8 0 13 5t5 13z m357-161q0-89-62-151t-152-63h-607q-103 0-177 73t-73 177q0 72 39 134t105 92q-1 17-1 24 0 118 84 202t202 84q87 0 159-49t105-129q40 35 93 35 59 0 101-42t42-101q0-43-23-77 72-17 119-76t46-133z" horiz-adv-x="1063" />

<glyph glyph-name="icon-upload" unicode="&#xe887;" d="M714 29q0 14-10 25t-25 10-26-10-10-25 10-26 26-10 25 10 10 26z m143 0q0 14-10 25t-26 10-25-10-10-25 10-26 25-10 26 10 10 26z m72 125v-179q0-22-16-38t-38-16h-821q-23 0-38 16t-16 38v179q0 22 16 38t38 15h238q12-31 39-51t62-20h143q34 0 61 20t40 51h238q22 0 38-15t16-38z m-182 361q-9-22-33-22h-143v-250q0-15-10-25t-25-11h-143q-15 0-25 11t-11 25v250h-143q-23 0-33 22-9 22 8 39l250 250q10 10 25 10t25-10l250-250q18-17 8-39z" horiz-adv-x="938" />

<glyph glyph-name="icon-vimeo" unicode="&#xe888;" d="M997 580a820 820 0 0 0-191-391q-156-184-273-264a107 107 0 0 0-90-19 166 166 0 0 0-74 42 240 240 0 0 0-48 68q-17 36-87 267t-82 248a45 45 0 0 1-42 6 210 210 0 0 1-50-24l-23-15-40 56q21 21 53 57a914 914 0 0 0 112 100 345 345 0 0 0 138 75 83 83 0 0 0 59-7 107 107 0 0 0 40-39 268 268 0 0 0 25-67 785 785 0 0 0 17-78q5-36 13-84t14-75q16-60 24-89t19-60a188 188 0 0 1 20-44 25 25 0 0 1 20-12q44 0 140 185 47 85 7 138t-125 3a282 282 0 0 0 156 209q116 59 203 9t65-195z" horiz-adv-x="1000" />

<glyph glyph-name="icon-vine" unicode="&#xe889;" d="M913 353v-113a493 493 0 0 0-112-13 904 904 0 0 0-93-152 1059 1059 0 0 0-104-122 453 453 0 0 0-72-61 88 88 0 0 0-92 2 273 273 0 0 0-34 25 597 597 0 0 0-48 48 586 586 0 0 0-58 71 1179 1179 0 0 0-61 104 997 997 0 0 0-60 138q-26 75-52 179a1881 1881 0 0 0-40 220h161a1804 1804 0 0 1 39-225 1143 1143 0 0 1 59-179 964 964 0 0 1 69-133 1288 1288 0 0 1 80-111 869 869 0 0 1 162 231 293 293 0 0 0-125 125 386 386 0 0 0-46 189 268 268 0 0 0 59 179 196 196 0 0 0 161 69 197 197 0 0 0 154-60 244 244 0 0 0 54-169 384 384 0 0 0-33-161l-11-2a223 223 0 0 0-26 0 193 193 0 0 0-36 3 104 104 0 0 0-34 14 79 79 0 0 0-30 26 377 377 0 0 1 18 105 139 139 0 0 1-17 75 50 50 0 0 1-44 25 56 56 0 0 1-49-28 145 145 0 0 1-18-80 225 225 0 0 1 60-166 203 203 0 0 1 151-61 288 288 0 0 1 68 8z" horiz-adv-x="1000" />

<glyph glyph-name="icon-wikipedia" unicode="&#xe88a;" d="M-2 647v19l2 2h225l2-2v-18q0-7-9-7l-24 0q-30 0-30-19a61 61 0 0 1 7-25q45-110 201-439l6 0 100 200q-12 27-20 44l-68 135-18 36a470 470 0 0 1-31 56 45 45 0 0 1-30 12q-13 1-13 6v19l2 2h180l5 0v-19q0-7-9-7l-14-2a62 62 0 0 1-17-5 10 10 0 0 1-5-11 64 64 0 0 1 4-15q3-7 13-28l66-137 74 147q14 29 4 39-5 8-33 10l-9 0a9 9 0 0 0-6 3q-3 0-3 6v17l3 2q52 0 169 0l2-2v-18q0-7-8-7a104 104 0 0 1-28-4 37 37 0 0 1-15-15 466 466 0 0 1-27-43l-96-179-3-6 117-238 7-3 183 437q11 25-2 37a54 54 0 0 1-36 12l-17 0a8 8 0 0 0-6 3 6 6 0 0 0-3 5v20l2 2h208l2-2v-18q0-7-8-9a100 100 0 0 1-60-17 111 111 0 0 1-31-44l-228-515a57 57 0 0 0-20-27 19 19 0 0 0-22 0 70 70 0 0 0-21 27q-34 68-110 239-96-197-119-240-38-65-65 0-28 68-118 259t-117 260a129 129 0 0 1-25 47 89 89 0 0 1-47 12q-13 1-13 6z" horiz-adv-x="1000" />

<glyph glyph-name="icon-wordpress" unicode="&#xe88b;" d="M87 350a414 414 0 0 0 36 169l197-541a414 414 0 0 0-170 151 393 393 0 0 0-63 221z m692 21a118 118 0 0 0-2-21l-5-25a113 113 0 0 0-6-25 225 225 0 0 1-10-32q-6-23-9-30l-41-138-150 444 47 4a16 16 0 0 1 15 10 15 15 0 0 1-2 16 19 19 0 0 1-16 7l-109-6q-41 0-108 6a15 15 0 0 1-11-2 12 12 0 0 1-6-9 61 61 0 0 1 0-9 13 13 0 0 1 5-9 15 15 0 0 1 11-5l42-4 64-175-91-271-150 447q25 0 47 3a16 16 0 0 1 15 11 15 15 0 0 1-2 16 18 18 0 0 1-15 7l-110-6h-25a409 409 0 0 0 343 188 403 403 0 0 0 150-29 418 418 0 0 0 128-80h-6a64 64 0 0 1-50-21 78 78 0 0 1-20-52 89 89 0 0 1 0-13q0-6 2-11a53 53 0 0 1 5-13 64 64 0 0 0 5-11 39 39 0 0 1 6-12 39 39 0 0 0 7-11 43 43 0 0 1 8-13 26 26 0 0 0 7-12 220 220 0 0 0 37-114z m-272-56l128-348a12 12 0 0 1 2-7 419 419 0 0 0-137-23 397 397 0 0 0-117 17z m355 234a408 408 0 0 0 50-199 400 400 0 0 0-56-207 421 421 0 0 0-150-150l127 365a483 483 0 0 1 31 148 300 300 0 0 1-2 42z m-362 282a463 463 0 0 0 187-38 512 512 0 0 0 154-102 443 443 0 0 0 102-154 522 522 0 0 0 38-187 432 432 0 0 0-38-187 528 528 0 0 0-102-154 455 455 0 0 0-154-102 472 472 0 0 0-374 0 455 455 0 0 0-154 102 528 528 0 0 0-102 154 432 432 0 0 0-38 187 522 522 0 0 0 38 187 443 443 0 0 0 102 154 512 512 0 0 0 154 102 463 463 0 0 0 187 38z m0-940a445 445 0 0 1 178 36 456 456 0 0 1 245 245 452 452 0 0 1 0 356 456 456 0 0 1-245 245 452 452 0 0 1-356 0 456 456 0 0 1-244-245 452 452 0 0 1 0-356 456 456 0 0 1 244-245 445 445 0 0 1 178-36z" horiz-adv-x="1000" />

<glyph glyph-name="icon-yelp" unicode="&#xe88c;" d="M503 122v-69q0-158-3-164a34 34 0 0 0-27-22 209 209 0 0 0-98 21 237 237 0 0 0-87 47 39 39 0 0 0-10 19 60 60 0 0 0 2 15 205 205 0 0 0 19 25q15 19 97 117s12 12 33 38a41 41 0 0 0 21 13 37 37 0 0 0 25-2 44 44 0 0 0 21-16 41 41 0 0 0 7-22z m-81 135a37 37 0 0 0-28-38l-64-21q-148-48-158-48a35 35 0 0 0-29 19 150 150 0 0 0-9 41 418 418 0 0 0 0 90 161 161 0 0 0 16 67 35 35 0 0 0 30 18 1004 1004 0 0 0 109-42l62-25 46-18a37 37 0 0 0 19-16 45 45 0 0 0 6-27z m446-160a220 220 0 0 0-50-87 202 202 0 0 0-74-68 33 33 0 0 0-33 3q-6 5-98 155l-25 42a39 39 0 0 0-6 25 44 44 0 0 0 11 25 36 36 0 0 0 44 13l65-21 130-43a64 64 0 0 0 25-11 33 33 0 0 0 11-33z m-363 341q3-55-29-66t-61 39l-203 322a34 34 0 0 0 9 34q23 23 113 48t120 16a34 34 0 0 0 27-25q0-9 12-164t12-204z m358-58a34 34 0 0 0-14-32q-8-6-178-47-36-8-48-12v0a39 39 0 0 0-25 2 47 47 0 0 0-21 17 38 38 0 0 0 0 48s15 18 41 55l80 109a100 100 0 0 0 18 21 34 34 0 0 0 36 0 200 200 0 0 0 66-71 268 268 0 0 0 44-91z" horiz-adv-x="1000" />

<glyph glyph-name="icon-youtube" unicode="&#xe88d;" d="M610 163v-114q0-36-21-36a34 34 0 0 0-25 11v163a34 34 0 0 0 25 11q21 0 21-35z m182 0v-25h-49v25q0 36 25 36t24-37z m-521 117h58v50h-169v-50h57v-308h54z m154-308h50v267h-50v-204q-16-22-31-22-10 0-11 10a91 91 0 0 0 0 20v196h-48v-211a119 119 0 0 1 5-40 29 29 0 0 1 31-20 79 79 0 0 1 54 32z m232 80v107a188 188 0 0 1-5 53 38 38 0 0 1-38 30 65 65 0 0 1-50-29v117h-48v-358h48v25a67 67 0 0 1 50-30 38 38 0 0 1 39 30 200 200 0 0 1 5 55z m182 6v7h-50a288 288 0 0 0 0-33 21 21 0 0 0-21-19q-25 0-25 37v47h96v55a109 109 0 0 1-14 63 69 69 0 0 1-57 27 70 70 0 0 1-58-27 109 109 0 0 1-14-63v-93a104 104 0 0 1 15-63 69 69 0 0 1 58-28 65 65 0 0 1 58 29 69 69 0 0 1 12 28 273 273 0 0 1 1 33z m-327 492v113q0 37-23 37t-23-38v-112q0-38 23-38t23 38z m388-405a959 959 0 0 0-13-189 106 106 0 0 0-32-54 88 88 0 0 0-55-25 2797 2797 0 0 0-300-10 2825 2825 0 0 0-300 11 98 98 0 0 0-86 78 880 880 0 0 0-14 189 897 897 0 0 0 15 189 100 100 0 0 0 31 54 93 93 0 0 0 55 25q100 11 300 11t299-11a97 97 0 0 0 55-25 110 110 0 0 0 32-54 941 941 0 0 0 13-189z m-539 688h55l-64-215v-146h-54v146a940 940 0 0 1-33 115q-20 55-36 100h58l38-142z m200-179v-94a103 103 0 0 0-15-64 66 66 0 0 0-57-28 66 66 0 0 0-57 28 111 111 0 0 0-15 64v94a106 106 0 0 0 15 62 66 66 0 0 0 57 28 66 66 0 0 0 57-28 100 100 0 0 0 16-62z m181 88v-270h-50v30a79 79 0 0 0-56-34 31 31 0 0 0-32 20 152 152 0 0 0-4 41v213h50v-217q2-11 12-11 14 0 31 23v205z" horiz-adv-x="1000" />

<glyph glyph-name="icon-behance" unicode="&#xe88e;" d="M848 585h-213v-51h213z m-105-178a86 86 0 0 1-61-22 85 85 0 0 1-25-59h168q-6 81-82 81z m7-243a105 105 0 0 1 50 13 61 61 0 0 1 32 36h93q-41-128-178-128a189 189 0 0 0-142 55 200 200 0 0 0-55 145 202 202 0 0 0 55 144 185 185 0 0 0 140 57 176 176 0 0 0 100-28 180 180 0 0 0 64-75 235 235 0 0 0 21-104q0-7 0-20h-275a100 100 0 0 1 25-71 89 89 0 0 1 70-24z m-557 20h123q85 0 85 70 0 75-83 75h-125z m0 224h116a78 78 0 0 1 52 16 60 60 0 0 1 19 47q0 59-79 59h-108z m-116 212h248a314 314 0 0 0 64-6 194 194 0 0 0 53-19 87 87 0 0 0 38-40 150 150 0 0 0 13-65 115 115 0 0 0-72-110 120 120 0 0 0 72-47 160 160 0 0 0 14-142 127 127 0 0 0-28-44 157 157 0 0 0-41-29 223 223 0 0 0-50-18 225 225 0 0 0-56-5h-255z" horiz-adv-x="1000" />
</font>
</defs>
</svg>
